<?xml version="1.0" encoding="UTF-8"?>
<svg id="Layer_2" data-name="Layer 2" xmlns="http://www.w3.org/2000/svg" xmlns:xlink="http://www.w3.org/1999/xlink" viewBox="0 0 419.13 136.73">
  <defs>
    <style>
      .cls-1 {
        fill: url(#linear-gradient);
      }

      .cls-1, .cls-2, .cls-3 {
        stroke-width: 0px;
      }

      .cls-2 {
        fill: #f2e0a8;
      }

      .cls-3 {
        fill: #f8e4aa;
      }
    </style>
    <linearGradient id="linear-gradient" x1="330.06" y1="77.33" x2="330.44" y2="77.38" gradientUnits="userSpaceOnUse">
      <stop offset="0" stop-color="#0d2825"/>
      <stop offset=".54" stop-color="#0f2a27"/>
      <stop offset=".92" stop-color="#153330"/>
      <stop offset="1" stop-color="#183634"/>
    </linearGradient>
  </defs>
  <g id="Layer_1-2" data-name="Layer 1">
    <g>
      <g>
        <path class="cls-3" d="M56.01,0c-5.4,2.53-7.46,0-14.23,0h-7.46c-2.53,0-4.71.58-6.32,1.49-1.6-.91-3.79-1.49-6.31-1.49h-7.46C7.46,0,5.39,2.53,0,0c2.18,7.58-2.76,17.22,7.46,25.25-1.5-7.11,2.06-12.62,6.77-12.62,4.13,0,7.46,3.33,7.46,7.46v3.9c0,6.08-1.72,11.48-4.36,14.23,2.64,2.87,4.36,8.15,4.36,14.35v9.53c0,5.62-1.72,11.7-4.36,13.2,1.26.8,2.75,1.26,4.36,1.26,2.52,0,4.71-.58,6.31-1.61,1.61,1.03,3.79,1.61,6.32,1.61,1.6,0,3.09-.46,4.36-1.26-2.53-1.5-4.36-7.58-4.36-13.2v-9.53c0-6.2,1.83-11.48,4.36-14.35-2.53-2.75-4.36-8.15-4.36-14.23v-3.9c0-4.13,3.32-7.46,7.46-7.46,4.7,0,8.26,5.51,6.77,12.62,10.21-8.03,5.28-17.67,7.46-25.25ZM54.29,7.69c0,4.94.11,9.99-4.25,14.69.11-3.1-.8-5.97-2.41-8.03-1.61-1.84-3.67-2.87-5.85-2.87-4.71,0-8.61,3.9-8.61,8.61v3.9c0,5.74,1.49,11.02,4.01,14.23-2.52,3.33-4.01,8.61-4.01,14.35v9.53c0,4.7,1.15,10.1,3.44,12.97-.69.23-1.49.34-2.29.34-2.19,0-4.25-.57-5.74-1.38l-.58-.34-.57.34c-1.49.81-3.56,1.38-5.74,1.38-.8,0-1.61-.11-2.3-.34,2.3-2.87,3.45-8.27,3.45-12.97v-9.53c0-5.74-1.49-11.02-4.02-14.35,2.53-3.21,4.02-8.49,4.02-14.23v-3.9c0-4.71-3.91-8.61-8.61-8.61-2.18,0-4.25,1.03-5.74,2.87-1.72,2.06-2.64,4.93-2.53,8.03C1.72,17.68,1.72,12.63,1.72,7.69c.11-2.06.11-4.02-.23-5.85,1.15.23,2.06.46,3.1.46,1.26,0,2.52-.23,3.79-.46,1.6-.35,3.44-.69,5.85-.69h7.46c2.18,0,4.25.46,5.74,1.38l.57.34.58-.34c1.49-.92,3.55-1.38,5.74-1.38h7.46c2.41,0,4.24.34,5.85.69,1.26.23,2.52.46,3.79.46,1.03,0,2.06-.23,3.1-.46-.35,1.83-.35,3.79-.23,5.85Z"/>
        <path class="cls-3" d="M57.16,4.71v2.98c0,5.17.12,10.79-4.59,16.18.23,1.49.23,3.33-.11,5.17,10.1-8.03,5.28-17.68,7.35-25.25-.92.46-1.84.8-2.64.92Z"/>
        <path class="cls-3" d="M53.6,2.87c-.69.12-1.49.12-2.18.12-1.38,0-2.64-.23-3.91-.46-1.6-.23-3.44-.58-5.73-.58h-7.46c-2.07,0-4.02.46-5.28,1.27l-1.04.57-.92-.57c-1.37-.81-3.32-1.27-5.39-1.27h-7.46c-2.3,0-4.13.35-5.62.58-1.38.23-2.65.46-4.02.46-.69,0-1.49,0-2.18-.12.11,1.61.11,3.22.11,4.82,0,4.48-.11,8.61,2.76,12.63.23-2.53,1.14-4.71,2.52-6.43,1.72-2.07,4.02-3.21,6.43-3.21,5.16,0,9.41,4.24,9.41,9.41v3.9c0,5.62-1.49,10.79-3.9,14.23,2.41,3.45,3.9,8.61,3.9,14.35v9.53c0,4.36-1.03,9.29-2.98,12.39.34.12.69.12,1.03.12,2.07,0,4.02-.46,5.39-1.27l.92-.57,1.04.57c1.26.81,3.21,1.27,5.28,1.27.34,0,.68,0,1.03-.12-1.95-3.1-2.99-8.03-2.99-12.39v-9.53c0-5.74,1.5-10.9,3.91-14.35-2.41-3.44-3.91-8.61-3.91-14.23v-3.9c0-5.17,4.25-9.41,9.42-9.41,2.41,0,4.7,1.14,6.42,3.21,1.38,1.72,2.3,3.9,2.53,6.43,2.87-4.02,2.75-8.15,2.75-12.63,0-1.6,0-3.21.12-4.82ZM28,46.03c-.46-2.87-1.37-5.51-2.52-7.81,1.15-2.29,2.06-4.93,2.52-7.8.58,2.87,1.38,5.51,2.53,7.8-1.15,2.3-1.95,4.94-2.53,7.81Z"/>
        <path class="cls-3" d="M38.73,77.23c-.61,1.01-1.18,2.03-1.69,3.08-2.01-.14-3.88-.68-5.25-1.46-1.61.92-3.79,1.5-6.31,1.5-1.61,0-3.1-.46-4.36-1.15.34-.23.8-.58,1.14-.92,2.07-.12,4.14-.57,5.74-1.38,1.84.92,4.02,1.38,6.32,1.38,1.51,0,3.03-.39,4.41-1.05Z"/>
        <path class="cls-3" d="M45.33,16.19c-.69-.8-1.84-1.84-3.56-1.84-3.21,0-5.74,2.52-5.74,5.74v3.9c0,5.05,1.26,9.76,3.44,12.51-.8-2.52-1.38-5.51-1.38-8.72v-3.9c0-4.02,3.33-7.35,7.46-7.46-.12,0-.12-.11-.23-.23Z"/>
        <path class="cls-3" d="M18.02,16.41c.23,0,.46,0,.69.11-1.03-1.38-2.64-2.18-4.48-2.18-1.72,0-2.87,1.03-3.56,1.84-1.72,2.07-2.29,5.28-1.49,8.72l.57,2.75c.46.46.92.92,1.49,1.38-1.49-7.12,2.18-12.63,6.77-12.63Z"/>
        <path class="cls-3" d="M39.94,39.49c-2.41,2.52-3.9,7.58-3.9,13.08v9.53c0,5.28,1.61,9.99,3.21,11.48-.69-2.3-1.15-5.05-1.15-7.58v-9.64c0-6.08,1.84-11.48,4.48-14.23-.8-.92-1.49-1.95-2.07-3.21l-.57.57Z"/>
        <path class="cls-3" d="M107.88,14.35v9.64c0,5.05,1.26,9.76,3.44,12.51-.8-2.52-1.26-5.51-1.26-8.72v-9.53c0-5.62,1.72-11.71,4.36-13.2-1.26-.69-2.64-1.15-4.02-1.26-1.38,2.07-2.53,6.2-2.53,10.56Z"/>
        <path class="cls-3" d="M111.9,39.49c-2.53,2.52-4.02,7.58-4.02,13.08v9.53c0,5.28,1.61,9.99,3.21,11.48-.69-2.3-1.03-5.05-1.03-7.58v-9.64c0-6.08,1.72-11.48,4.36-14.23-.8-.92-1.49-1.95-2.07-3.21l-.46.57Z"/>
        <path class="cls-3" d="M73.53,77.42c-.21.45-.31.93-.31,1.44,0,.37.07.72.19,1.06-1.09.28-2.29.43-3.52.43-1.61,0-3.1-.46-4.48-1.15.46-.23.81-.58,1.15-.92,2.07-.12,4.13-.57,5.74-1.38.39.2.8.37,1.23.52Z"/>
        <path class="cls-3" d="M86.88,79.2c-1.27.69-2.76,1.15-4.36,1.15-.64,0-1.26-.04-1.85-.11,1.64-.85,3.62-1.49,5.4-1.74.26.27.54.5.81.7Z"/>
        <path class="cls-3" d="M93.18,79.31c.93.27,1.9.58,2.9.93-1.05-.16-2.05-.49-2.9-.93Z"/>
        <path class="cls-3" d="M114.42,79.2s-.07.04-.11.06c-1.45-.58-2.89-1.18-4.31-1.77.5-.2.98-.44,1.44-.7l.69-.35c.69,1.27,1.38,2.18,2.29,2.76Z"/>
        <path class="cls-3" d="M90.55,45.22h-.57c-4.14,0-7.46,3.33-7.46,7.46v2.17c-.68-.07-1.41-.11-2.18-.14v-5.81c0-3.22,2.63-5.74,5.73-5.74,1.84,0,3.45.8,4.48,2.06Z"/>
        <path class="cls-3" d="M78.94,72.97c-.57-.27-1.01-.57-1.36-.82-.41-.28-.66-.46-1.09-.58-.97-.29-1.71-1.08-1.94-2.07-.23-.98.08-2.02.82-2.71.48-.45,1.03-1.07,1.56-1.74-.1-1-.15-1.99-.15-2.95v-.35c-2.97.57-6.03,1.82-9.02,3.6-.38,3.4-1.32,6.79-2.8,9.14.34.12.68.12,1.03.12,2.06,0,4.02-.46,5.39-1.27l.92-.57,1.03.57c1,.59,2.3.99,3.69,1.17.66-.38,1.37-.75,2.14-1.09-.07-.15-.15-.3-.22-.45ZM104.32,52.57c0-5.74,1.38-10.9,3.79-14.35-2.41-3.44-3.79-8.61-3.79-14.23v-9.64c0-4.25.92-9.3,2.87-12.4h-1.03c-1.95,0-3.9.46-5.28,1.27l-1.03.57-.92-.57c-1.38-.81-3.33-1.27-5.4-1.27h-1.03c1.95,3.1,2.99,8.15,2.99,12.4v13.31c0,5.17-4.25,9.41-9.42,9.41s-9.29-4.24-9.29-9.41v-13.31c0-4.25,1.03-9.3,2.98-12.4h-1.15c-1.95,0-3.9.46-5.28,1.27l-1.03.57-.92-.57c-1.37-.81-3.33-1.27-5.39-1.27h-1.03c1.95,3.1,2.98,8.15,2.98,12.4v9.64c0,5.62-1.38,10.79-3.9,14.23,2.52,3.45,3.9,8.61,3.9,14.35v3.64c2.94-.79,5.92-1.28,8.84-1.45v-5.86c0-5.17,4.13-9.41,9.29-9.41s9.42,4.24,9.42,9.41v13.2c0,3.28-.59,6.88-1.71,9.78,1.76.33,3.52.8,5.29,1.37l.78-.48,1.03.57c1.38.81,3.33,1.27,5.28,1.27.34,0,.69,0,1.03-.12-1.95-3.1-2.87-8.03-2.87-12.39v-9.53ZM72.19,45.34c-.46-2.53-1.27-4.94-2.41-7.12,1.14-2.06,1.95-4.47,2.41-7,.68,2.76,2.18,5.17,4.24,7-2.06,1.95-3.56,4.36-4.24,7.12ZM99.96,45.34c-.69-2.76-2.18-5.17-4.25-7.12,2.07-1.83,3.56-4.24,4.25-7,.58,2.53,1.38,4.94,2.41,7-1.03,2.18-1.83,4.59-2.41,7.12Z"/>
        <path class="cls-3" d="M78.61,62.1v-.62c-.38.04-.76.09-1.14.16v.46c0,.7.03,1.42.09,2.14.38-.51.75-1.04,1.06-1.54-.01-.2-.01-.4-.01-.6ZM72.87,74.03l-.57-.34-.57.34c-1.5.81-3.56,1.38-5.74,1.38-.81,0-1.49-.11-2.3-.34,1.7-2.12,2.77-5.62,3.21-9.19-.43.26-.86.54-1.28.83-.64,3.99-2.07,7.5-3.99,8.59,1.26.8,2.75,1.26,4.36,1.26,2.52,0,4.7-.58,6.31-1.61.68.44,1.49.79,2.38,1.05.4-.28.83-.58,1.3-.88-1.16-.24-2.25-.62-3.11-1.09ZM86.07,40.29c-4.7,0-8.6,3.79-8.6,8.61v5.82c.38-.01.76-.02,1.14-.03v-5.79c0-4.14,3.33-7.46,7.46-7.46s7.46,3.32,7.46,7.46v13.2c0,3.36-.62,6.89-1.67,9.5.4.04.8.09,1.19.17,1.08-2.85,1.63-6.43,1.63-9.67v-13.2c0-4.82-3.79-8.61-8.61-8.61ZM110.64,38.22c-2.64-2.75-4.48-8.15-4.48-14.23v-9.64c0-5.63,1.84-11.59,4.48-13.2-1.38-.69-2.87-1.15-4.48-1.15-2.41,0-4.71.58-6.31,1.49-1.61-.91-3.79-1.49-6.32-1.49-1.6,0-3.09.46-4.36,1.15,2.64,1.61,4.36,7.57,4.36,13.2v13.31c0,4.14-3.32,7.46-7.46,7.46s-7.46-3.32-7.46-7.46v-13.31c0-5.63,1.84-11.59,4.48-13.2-1.38-.69-2.87-1.15-4.48-1.15-2.41,0-4.7.58-6.31,1.49-1.61-.91-3.79-1.49-6.31-1.49-1.61,0-3.1.46-4.36,1.15,2.64,1.61,4.36,7.57,4.36,13.2v9.64c0,6.08-1.72,11.48-4.36,14.23,2.64,2.87,4.36,8.15,4.36,14.35v4.2c.38-.12.77-.23,1.15-.34v-3.86c0-5.74-1.5-11.02-4.02-14.35,2.52-3.21,4.02-8.49,4.02-14.23v-9.64c0-4.59-1.15-10.1-3.45-12.86.81-.23,1.49-.34,2.3-.34,2.18,0,4.24.46,5.74,1.38l.57.34.57-.34c1.5-.92,3.68-1.38,5.74-1.38.81,0,1.61.11,2.41.34-2.29,2.76-3.55,8.27-3.55,12.86v13.31c0,4.71,3.9,8.61,8.6,8.61s8.61-3.9,8.61-8.61v-13.31c0-4.59-1.15-10.1-3.44-12.86.69-.23,1.49-.34,2.29-.34,2.18,0,4.25.46,5.74,1.38l.58.34.57-.34c1.49-.92,3.56-1.38,5.74-1.38.8,0,1.61.11,2.3.34-2.19,2.76-3.45,8.27-3.45,12.86v9.64c0,5.74,1.49,11.02,4.02,14.23-2.53,3.33-4.02,8.61-4.02,14.35v9.53c0,4.7,1.26,10.1,3.45,12.97-.69.23-1.5.34-2.3.34-.48,0-.96-.03-1.42-.08.91.36,1.83.74,2.76,1.12,1.1-.18,2.15-.58,3.14-1.15-2.64-1.5-4.48-7.58-4.48-13.2v-9.53c0-6.2,1.84-11.48,4.48-14.35Z"/>
        <path class="cls-3" d="M80.34,14.35v13.31c0,1.84.92,3.44,2.18,4.48v-13.89c0-5.62,1.72-11.71,4.36-13.2-1.15-.69-2.53-1.15-4.02-1.26-1.38,2.07-2.53,6.2-2.53,10.56Z"/>
        <path class="cls-3" d="M136.57,48.9v7.58c0,1.72.92,3.33,2.18,4.48v-8.26c0-4.13,3.33-7.46,7.46-7.46h.46c-1.03-1.38-3.33-2.07-4.36-2.07-3.1,0-5.74,2.52-5.74,5.74Z"/>
        <path class="cls-3" d="M155.74,34.55v.34c0,1.15-.34,2.3-.92,3.33.57,1.03.92,2.18.92,3.44,0,2.75-1.61,5.17-4.02,6.2.57.8.92,1.72.92,2.75h.57v-2.87l2.53,1.95c1.26-1.03,2.07-2.52,2.07-4.25,0-1.26-.46-2.41-1.26-3.33.8-.92,1.26-2.07,1.26-3.44,0-1.72-.8-3.21-2.07-4.13Z"/>
        <path class="cls-3" d="M140.54,80.35c.07-.11.15-.21.22-.32-.01.11-.01.21-.01.32h-.21Z"/>
        <path class="cls-3" d="M166.3,80.35c-4.14-1.9-7.37-.95-13.24-.35-.04-.9-.28-1.74-.69-2.5.05-.01.1-.01.15-.02,3.91-.46,6.32-.69,9.19.57l3.44,1.61-1.03-3.56c-.69-2.18-.69-4.71-.58-7.23,0-3.22,0-6.54-1.03-9.99,5.16,7.23,1.95,15.15,3.79,21.47Z"/>
        <path class="cls-3" d="M136.57,20.09v7.58c0,1.84.92,3.44,2.18,4.48v-8.26c0-4.13,3.33-7.46,7.46-7.46,1.03,0,2.07.23,3.1.46-1.95-1.61-4.36-2.52-7-2.52-3.1,0-5.74,2.52-5.74,5.74Z"/>
        <path class="cls-3" d="M163.54,7.69c0,5.39.12,11.59-5.51,17.1.46,1.38.8,2.75.8,4.25,10.1-8.03,5.28-17.68,7.46-25.25-1.03.46-1.84.8-2.75.92v2.98Z"/>
        <path class="cls-3" d="M156.31,55.21c-1.72,6.08-7.34,10.56-14,10.56-5.17,0-9.3-4.13-9.3-9.3v-7.57c0-5.17,4.13-9.41,9.3-9.41,2.53,0,6.77,1.49,8.03,5.05,1.04-.58,1.73-1.61,1.73-2.87,0-.81-.23-1.61-.69-2.18l-1.15-1.27,1.15-1.26c.46-.57.69-1.26.69-2.07,0-.91-.23-1.72-.92-2.29-.23-.23-.46-.46-.81-.58-1.26,3.45-5.5,5.05-8.03,5.05-5.17,0-9.3-4.24-9.3-9.41v-7.57c0-5.17,4.13-9.41,9.3-9.41,6.66,0,12.28,4.47,14,10.67,3.68-4.25,3.56-8.84,3.56-13.66,0-1.6,0-3.21.12-4.93-.92.23-1.84.23-2.76.23-1.61,0-3.21-.12-5.16-.35-2.53-.34-5.63-.69-9.76-.69h-7.46c-1.95,0-3.9.46-5.28,1.27l-1.03.57-.92-.57c-1.38-.81-3.33-1.27-5.4-1.27h-1.03c1.95,3.1,2.98,8.15,2.98,12.4v9.64c0,5.62-1.37,10.79-3.9,14.23,2.53,3.45,3.9,8.61,3.9,14.35v9.53c0,3.73-.75,7.87-2.19,10.93,1.47-.8,2.53-.97,3.33-.97.88,0,1.6.19,2.12.34.16.05.38.11.46.12.9,0,1.71.42,2.22,1.11h.01c.62.29,1.31.52,2.05.68,4.25-4.6,7.5-6.92,9.71-6.92.89,0,1.6.2,2.12.35.16.04.38.1.46.11,1.12,0,2.12.66,2.58,1.69.45,1.03.23,2.23-.53,3.06-.42.46-.89,1.01-1.4,1.63.15-.02.29-.02.44-.02.17,0,.33.01.5.03.29-.04.58-.06.87-.06.48,0,.93.05,1.37.17h.01c1.4-.13,2.64-.28,3.77-.43,1.95-.23,3.55-.46,5.16-.46.92,0,1.84.11,2.76.23-.12-1.61-.12-3.22-.12-4.94,0-4.7.12-9.29-3.56-13.54ZM128.42,45.34c-.46-2.53-1.26-4.94-2.41-7.12,1.15-2.06,1.95-4.47,2.41-7,.69,2.76,2.18,5.17,4.25,7-2.07,1.95-3.56,4.36-4.25,7.12Z"/>
        <path class="cls-3" d="M130.61,74.68c.11.41.11.84.02,1.24.03,0,.05.02.07.02.29-.34.58-.66.87-.97-.33-.08-.66-.18-.96-.29ZM154.93,51.31c0,6.88-5.62,12.62-12.62,12.62-4.13,0-7.46-3.33-7.46-7.46v-7.57c0-4.14,3.33-7.46,7.46-7.46,2.3,0,6.54,1.6,6.54,5.39,2.87,0,5.17-2.29,5.17-5.16,0-1.27-.46-2.53-1.27-3.45.81-.92,1.27-2.06,1.27-3.33,0-2.87-2.3-5.16-5.17-5.16,0,3.67-4.24,5.39-6.54,5.39-4.13,0-7.46-3.32-7.46-7.46v-7.57c0-4.13,3.33-7.46,7.46-7.46,7,0,12.62,5.62,12.62,12.62,10.22-8.03,5.28-17.67,7.47-25.25-5.4,2.53-9.3,0-20.09,0h-7.46c-2.41,0-4.71.58-6.31,1.49-1.61-.91-3.79-1.49-6.32-1.49-1.6,0-3.09.46-4.36,1.15,2.64,1.61,4.36,7.57,4.36,13.2v9.64c0,6.08-1.72,11.48-4.36,14.23,2.64,2.87,4.36,8.15,4.36,14.35v9.53c0,5.62-1.72,11.7-4.36,13.2.19.12.38.23.58.32.87-.77,1.65-1.38,2.35-1.85,1.72-3.03,2.58-7.61,2.58-11.67v-9.53c0-5.74-1.49-11.02-4.02-14.35,2.53-3.21,4.02-8.49,4.02-14.23v-9.64c0-4.59-1.15-10.1-3.44-12.86.8-.23,1.49-.34,2.29-.34,2.18,0,4.25.46,5.74,1.38l.58.34.57-.34c1.49-.92,3.67-1.38,5.74-1.38h7.46c4.13,0,7.35.34,9.87.69,1.84.23,3.44.46,5.05.46,1.26,0,2.53-.23,3.67-.46-.34,1.83-.23,3.79-.23,5.85,0,5.17.12,10.45-4.7,15.15-1.15-6.43-6.89-11.36-13.66-11.36-4.71,0-8.61,3.9-8.61,8.61v7.57c0,4.71,3.9,8.61,8.61,8.61,2.41,0,6.77-1.61,7.57-5.28.69.23,1.27.58,1.84,1.03.8.81,1.15,1.84,1.15,2.87,0,.92-.35,1.84-.92,2.64l-.69.69.69.81c.57.68.92,1.6.92,2.64,0,1.83-1.26,3.44-2.99,3.9-.8-3.67-5.16-5.28-7.57-5.28-4.71,0-8.61,3.79-8.61,8.61v7.57c0,4.71,3.9,8.61,8.61,8.61,6.77,0,12.51-4.94,13.66-11.48,4.82,4.82,4.7,10.1,4.7,15.15,0,2.07-.11,4.02.23,5.97-1.14-.34-2.41-.46-3.67-.46-1.61,0-3.21.23-5.05.46-.71.07-1.47.15-2.29.24.5.26.97.61,1.37,1.02,4.67-.56,7.58-1.09,11.14.58-2.19-7.58,2.75-17.22-7.47-25.25Z"/>
        <path class="cls-3" d="M249.62,0c-5.4,2.53-9.3,0-20.09,0h-7.46c-2.41,0-4.7.58-6.31,1.49-1.61-.91-3.79-1.49-6.31-1.49-1.61,0-3.1.46-4.36,1.15,2.64,1.61,4.36,7.57,4.36,13.2v9.64c0,6.08-1.72,11.48-4.36,14.23,2.64,2.87,4.36,8.15,4.36,14.35v9.53c0,5.62-1.72,11.7-4.36,13.2,1.26.8,2.75,1.26,4.36,1.26,2.52,0,4.7-.58,6.31-1.61.24.15.5.3.77.43.22-.32.44-.63.68-.94-.32-.12-.61-.26-.88-.41l-.57-.34-.57.34c-1.5.81-3.56,1.38-5.74,1.38-.81,0-1.49-.11-2.3-.34,2.3-2.87,3.45-8.27,3.45-12.97v-9.53c0-5.74-1.5-11.02-4.02-14.35,2.52-3.21,4.02-8.49,4.02-14.23v-9.64c0-4.59-1.15-10.1-3.45-12.86.81-.23,1.49-.34,2.3-.34,2.18,0,4.24.46,5.74,1.38l.57.34.57-.34c1.5-.92,3.68-1.38,5.74-1.38h7.46c4.14,0,7.35.34,9.87.69,1.84.23,3.45.46,5.05.46,1.27,0,2.53-.23,3.68-.46-.35,1.83-.23,3.79-.23,5.85,0,5.17.11,10.45-4.71,15.15-1.15-6.43-6.88-11.36-13.66-11.36-4.7,0-8.6,3.9-8.6,8.61v7.57c0,4.71,3.9,8.61,8.6,8.61,2.41,0,6.78-1.61,7.58-5.28.69.23,1.26.58,1.84,1.03.8.81,1.14,1.84,1.14,2.87,0,.92-.34,1.84-.92,2.64l-.68.69.68.81c.58.68.92,1.6.92,2.64,0,1.83-1.26,3.44-2.98,3.9-.8-3.67-5.17-5.28-7.58-5.28-4.7,0-8.6,3.79-8.6,8.61v7.57c0,3.83,2.58,7.13,6.08,8.23.41-.31.82-.6,1.23-.89-3.51-.6-6.17-3.65-6.17-7.34v-7.57c0-4.14,3.33-7.46,7.46-7.46,2.3,0,6.55,1.6,6.55,5.39,2.87,0,5.16-2.29,5.16-5.16,0-1.27-.46-2.53-1.26-3.45.8-.92,1.26-2.06,1.26-3.33,0-2.87-2.29-5.16-5.16-5.16,0,3.67-4.25,5.39-6.55,5.39-4.13,0-7.46-3.32-7.46-7.46v-7.57c0-4.13,3.33-7.46,7.46-7.46,7.01,0,12.63,5.62,12.63,12.62,10.21-8.03,5.28-17.67,7.46-25.25ZM248.81,63.12c-.35.14-.71.28-1.06.45.16,1.73.15,3.47.15,5.18,0,2.07-.12,4.02.23,5.97-1.15-.34-2.41-.46-3.68-.46-1.6,0-3.21.23-5.05.46-1.86.17-4.08.46-6.78.61-.35.39-.68.79-1.01,1.2,9.24-.29,12.97-2.33,18.01.03-1.17-4.07-.29-8.74-.81-13.44ZM242.16,51.31c0,2.21-.58,4.31-1.61,6.13.54-.19,1.08-.37,1.62-.54.47-1.04.82-2.14,1.02-3.3.8.8,1.46,1.61,2.01,2.43.37-.1.75-.18,1.12-.27-.99-1.52-2.33-3.01-4.16-4.45Z"/>
        <path class="cls-3" d="M210.02,78.28c1.93-.11,3.85-.51,5.4-1.22-.66,1.07-1.27,2.16-1.82,3.28-.08.01-.17.01-.25.01-1.61,0-3.1-.46-4.48-1.15.46-.23.81-.58,1.15-.92Z"/>
        <path class="cls-3" d="M253.52,80.35c-5.51-2.53-9.41,0-20.08,0h-4.68c.47-.7.97-1.4,1.48-2.08,4.01-.04,7.02-.47,9.51-.79,3.9-.46,6.31-.69,9.18.57l3.44,1.61-1.03-3.56c-.69-2.18-.69-4.71-.57-7.23,0-2.08,0-4.2-.28-6.37.35-.12.69-.22,1.04-.32.53,1.31.86,2.63,1.05,3.95-.22.25-.43.47-.64.66-.74.69-1.05,1.73-.82,2.71.22.93.89,1.68,1.77,2-.01,3.12-.16,6.13.63,8.85Z"/>
        <path class="cls-3" d="M223.8,20.09v7.58c0,1.84.92,3.44,2.18,4.48v-8.26c0-4.13,3.33-7.46,7.46-7.46,1.03,0,2.07.23,3.1.46-1.95-1.61-4.36-2.52-7-2.52-3.1,0-5.74,2.52-5.74,5.74Z"/>
        <path class="cls-3" d="M242.96,34.55v.34c0,1.15-.34,2.3-.92,3.33.57,1.03.92,2.18.92,3.44,0,2.75-1.61,5.17-4.02,6.2.57.8.92,1.72.92,2.75h.57v-2.87l2.53,1.95c1.26-1.03,2.07-2.52,2.07-4.25,0-1.26-.46-2.41-1.26-3.33.8-.92,1.26-2.07,1.26-3.44,0-1.72-.8-3.21-2.07-4.13Z"/>
        <path class="cls-3" d="M250.77,7.69c0,5.39.11,11.59-5.51,17.1.46,1.38.8,2.75.8,4.25,10.1-8.03,5.28-17.68,7.46-25.25-1.03.46-1.84.8-2.75.92v2.98Z"/>
        <path class="cls-3" d="M223.8,48.9v7.58c0,1.72.92,3.33,2.18,4.48v-8.26c0-4.13,3.33-7.46,7.46-7.46h.46c-1.03-1.38-3.33-2.07-4.36-2.07-3.1,0-5.74,2.52-5.74,5.74Z"/>
        <path class="cls-3" d="M243.54,55.21c-.14.48-.3.95-.49,1.41.44-.13.87-.25,1.3-.37-.24-.35-.51-.7-.81-1.04ZM247.09,68.75c0-1.62,0-3.23-.12-4.82-4.82,2.32-9.57,6.08-13.62,10.58,2.33-.13,4.26-.36,5.94-.59,1.95-.23,3.56-.46,5.16-.46.92,0,1.84.11,2.76.23-.12-1.61-.12-3.22-.12-4.94ZM247.21,2.76c-.92.23-1.84.23-2.76.23-1.6,0-3.21-.12-5.16-.35-2.53-.34-5.62-.69-9.76-.69h-7.46c-1.95,0-3.9.46-5.28,1.27l-1.03.57-.92-.57c-1.38-.81-3.33-1.27-5.39-1.27h-1.03c1.95,3.1,2.98,8.15,2.98,12.4v9.64c0,5.62-1.38,10.79-3.9,14.23,2.52,3.45,3.9,8.61,3.9,14.35v9.53c0,4.36-1.03,9.29-2.98,12.39.34.12.68.12,1.03.12,2.06,0,4.01-.46,5.39-1.27l.92-.57,1.03.57c.28.16.58.31.9.44,2.45-3.19,5.38-6.06,8.63-8.57-3.56-1.3-6.08-4.7-6.08-8.74v-7.57c0-5.17,4.13-9.41,9.29-9.41,2.53,0,6.78,1.49,8.04,5.05,1.03-.58,1.72-1.61,1.72-2.87,0-.81-.23-1.61-.69-2.18l-1.15-1.27,1.15-1.26c.46-.57.69-1.26.69-2.07,0-.91-.23-1.72-.92-2.29-.23-.23-.46-.46-.8-.58-1.26,3.45-5.51,5.05-8.04,5.05-5.16,0-9.29-4.24-9.29-9.41v-7.57c0-5.17,4.13-9.41,9.29-9.41,6.66,0,12.28,4.47,14.01,10.67,3.67-4.25,3.55-8.84,3.55-13.66,0-1.6,0-3.21.12-4.93ZM215.65,45.34c-.46-2.53-1.27-4.94-2.41-7.12,1.14-2.06,1.95-4.47,2.41-7,.68,2.76,2.18,5.17,4.24,7-2.06,1.95-3.56,4.36-4.24,7.12Z"/>
        <path class="cls-3" d="M308.49,39.49c-2.52,2.52-4.02,7.58-4.02,13.08v6.77c0,10.44-8.49,18.94-18.94,18.94h-10.33c-2.29,0-4.48-.46-6.31-1.38-1.61.8-3.67,1.26-5.74,1.38-.34.34-.69.69-1.15.92,1.38.69,2.87,1.15,4.48,1.15,2.41,0,4.71-.57,6.31-1.49,1.61.92,3.79,1.49,6.31,1.49h10.33c9.41,0,17.22-7.69,17.22-17.22v-6.77c0-6.08,1.72-11.48,4.36-14.23-.8-.92-1.49-1.95-2.07-3.21l-.46.57Z"/>
        <path class="cls-3" d="M279.11,60.95v-4.59c0-6.08,1.72-11.48,4.36-14.23-.8-.92-1.49-1.95-2.07-3.21l-.46.57c-2.41,2.52-4.02,7.58-4.02,13.08v3.9c0,1.72.92,3.33,2.18,4.48Z"/>
        <path class="cls-3" d="M304.48,23.99c0,5.05,1.26,9.76,3.44,12.51-.8-2.52-1.26-5.51-1.26-8.72v-6.77c0-3.56-1.15-7-3.1-9.76.57,1.84.92,3.9.92,5.97v6.77Z"/>
        <path class="cls-3" d="M279.11,27.78v-3.9c0-4.13,3.33-7.46,7.46-7.46.11,0,.34,0,.57.11-1.03-1.38-2.64-2.18-4.48-2.18-3.1,0-5.74,2.52-5.74,5.74v3.9c0,5.05,1.38,9.76,3.44,12.51-.8-2.52-1.26-5.51-1.26-8.72Z"/>
        <path class="cls-3" d="M291.28,20.09c0-4.71-3.79-8.61-8.61-8.61s-8.61,3.9-8.61,8.61v3.9c0,5.74,1.49,11.02,4.13,14.23-2.64,3.33-4.13,8.61-4.13,14.35v3.9c0,4.71,3.9,8.61,8.61,8.61s8.61-3.9,8.61-8.61v-3.9c0-5.74-1.49-11.02-4.02-14.35,2.53-3.21,4.02-8.49,4.02-14.23v-3.9ZM290.13,23.99c0,6.08-1.72,11.48-4.36,14.23,2.64,2.87,4.36,8.15,4.36,14.35v3.9c0,4.13-3.33,7.46-7.46,7.46s-7.46-3.33-7.46-7.46v-3.9c0-6.2,1.84-11.48,4.48-14.35-2.64-2.75-4.48-8.15-4.48-14.23v-3.9c0-4.13,3.33-7.46,7.46-7.46s7.46,3.33,7.46,7.46v3.9Z"/>
        <path class="cls-3" d="M300.92,23.99v-6.77c0-8.38-6.89-15.27-15.38-15.27h-10.33c-1.95,0-3.9.46-5.28,1.27l-1.03.57-.92-.57c-1.38-.81-3.33-1.27-5.4-1.27h-1.03c1.95,3.1,2.99,8.15,2.99,12.4v9.64c0,5.62-1.38,10.79-3.91,14.23,2.53,3.45,3.91,8.61,3.91,14.35v3.62c3.49,1.59,4.42,4.19,4.42,6.5,0,4.14-2.99,7.96-6.37,9.78h-.01c-.3.74-.65,1.41-1.03,2.02.35.12.69.12,1.03.12,2.07,0,4.02-.46,5.4-1.27l.92-.57,1.03.57c1.38.81,3.33,1.27,5.28,1.27h10.33c8.49,0,15.38-6.89,15.38-15.27v-6.77c0-5.74,1.38-10.9,3.79-14.35-2.41-3.44-3.79-8.61-3.79-14.23ZM268.9,46.03c-.46-2.87-1.38-5.51-2.53-7.81,1.15-2.29,2.07-4.93,2.53-7.8.57,2.87,1.37,5.51,2.52,7.8-1.15,2.3-1.95,4.94-2.52,7.81ZM292.08,23.99c0,5.62-1.49,10.79-3.9,14.23,2.41,3.45,3.9,8.61,3.9,14.35v3.9c0,5.17-4.24,9.3-9.41,9.3s-9.3-4.13-9.3-9.3v-3.9c0-5.74,1.38-10.9,3.79-14.35-2.41-3.44-3.79-8.61-3.79-14.23v-3.9c0-5.17,4.14-9.41,9.3-9.41s9.41,4.24,9.41,9.41v3.9ZM296.44,46.03c-.46-2.87-1.37-5.51-2.52-7.81,1.15-2.29,2.06-4.93,2.52-7.8.58,2.87,1.38,5.51,2.53,7.8-1.15,2.3-1.95,4.94-2.53,7.81Z"/>
        <path class="cls-3" d="M302.76,23.99v-6.77c0-9.53-7.69-17.22-17.22-17.22h-10.33c-2.41,0-4.71.58-6.31,1.49-1.61-.91-3.79-1.49-6.32-1.49-1.6,0-3.09.46-4.36,1.15,2.64,1.61,4.36,7.57,4.36,13.2v9.64c0,6.08-1.72,11.48-4.36,14.23,2.64,2.87,4.36,8.15,4.36,14.35v2.92c.41.11.79.23,1.15.37v-3.29c0-5.74-1.49-11.02-4.02-14.35,2.53-3.21,4.02-8.49,4.02-14.23v-9.64c0-4.59-1.15-10.1-3.44-12.86.8-.23,1.49-.34,2.29-.34,2.18,0,4.25.46,5.74,1.38l.58.34.57-.34c1.49-.92,3.67-1.38,5.74-1.38h10.33c8.84,0,16.07,7.23,16.07,16.07v6.77c0,5.74,1.49,11.02,4.02,14.23-2.53,3.33-4.02,8.61-4.02,14.35v6.77c0,8.84-7.23,16.07-16.07,16.07h-10.33c-2.07,0-4.25-.57-5.74-1.38l-.57-.34-.58.34c-1.49.81-3.56,1.38-5.74,1.38-.8,0-1.49-.11-2.29-.34.48-.6.91-1.31,1.28-2.11-.53.22-1.06.38-1.59.49-.52.84-1.11,1.48-1.76,1.85,1.27.8,2.76,1.26,4.36,1.26,2.53,0,4.71-.58,6.32-1.61,1.6,1.03,3.9,1.61,6.31,1.61h10.33c9.53,0,17.22-7.69,17.22-17.22v-6.77c0-6.2,1.83-11.48,4.47-14.35-2.64-2.75-4.47-8.15-4.47-14.23Z"/>
        <path class="cls-3" d="M343.38,16.41c-1.03-1.26-2.64-2.07-4.48-2.07-3.1,0-5.74,2.52-5.74,5.74v3.9c0,5.05,1.38,9.76,3.44,12.51-.8-2.52-1.26-5.51-1.26-8.72v-3.9c0-4.13,3.33-7.46,7.46-7.46h.57Z"/>
        <path class="cls-3" d="M333.17,52.57v3.9c0,1.72.92,3.33,2.18,4.48v-4.59c0-6.08,1.72-11.48,4.36-14.23-.8-.92-1.49-1.95-2.07-3.21l-.46.57c-2.41,2.52-4.02,7.58-4.02,13.08Z"/>
        <path class="cls-3" d="M360.71,43.5v5.39c0,.92.57,1.84,1.38,2.3l.8.34v-4.25c0-3.79,1.72-7.8,4.36-8.84-1.49-.57-2.98-1.03-4.48-1.26-1.15,1.38-2.07,3.79-2.07,6.31Z"/>
        <path class="cls-3" d="M365.08,56.47c-1.38.81-2.19,2.18-2.19,3.79v2.87c0,9.53-7.8,17.22-17.21,17.22h-5.74c-3.54,0-6.87-1.07-9.57-2.9-.1-.06-.2-.13-.3-.2.12.05.24.09.37.13,1.73.6,3.67.9,5.6.9h5.74c10.44,0,18.93-8.49,18.93-18.94v-2.87c0-.92.58-1.83,1.38-2.29l.92-.46c.23,1.14,1.03,2.18,2.07,2.75Z"/>
        <path class="cls-3" d="M357.16,43.5c0-2.75.8-5.85,2.41-8.15-1.38-.23-2.64-.34-4.02-.34-3.79,0-7.12,1.26-8.61,3.1,1.38,1.72,1.38,4.01,1.38,5.39v5.4c0,1.37-.46,2.64-1.27,3.78.81,1.04,1.27,2.41,1.27,3.79,0,5.17-4.25,9.3-9.41,9.3s-9.3-4.13-9.3-9.3v-3.9c0-5.74,1.38-10.9,3.79-14.35-2.41-3.44-3.79-8.61-3.79-14.23v-3.9c0-5.17,4.13-9.41,9.3-9.41s9.41,4.24,9.41,9.41c0,2.87-.58,5.74-1.61,8.26,5.74-.11,10.45-3.79,10.45-8.26v-2.87c0-8.5-6.89-15.27-15.38-15.27h-5.74c-8.38,0-15.27,6.77-15.27,15.27v6.77c0,5.62-1.38,10.79-3.9,14.23,2.52,3.45,3.9,8.61,3.9,14.35v6.77c0,5.56,3.03,10.47,7.52,13.14h.01c.08.02.15.04.18.04.9,0,1.72.42,2.24,1.12,1.66.63,3.45.97,5.32.97h5.74c8.49,0,15.38-6.89,15.38-15.27v-2.87c0-1.38.45-2.75,1.26-3.79-.81-1.14-1.26-2.41-1.26-3.78v-5.4ZM325.13,46.03c-.46-2.87-1.38-5.51-2.52-7.81,1.14-2.29,2.06-4.93,2.52-7.8.58,2.87,1.38,5.51,2.53,7.8-1.15,2.3-1.95,4.94-2.53,7.81Z"/>
        <path class="cls-3" d="M360.71,20.09c0,5.97-5.28,10.9-12.17,11.71-.11.34-.23.69-.46,1.03q.12,0,.23-.11c2.87-1.26,6.54-1.61,10.21-1.15,2.64-1.84,4.36-4.59,4.36-7.69v-2.87c0-3.67-1.15-7-3.1-9.76.57,1.84.92,3.9.92,5.97v2.87Z"/>
        <path class="cls-3" d="M363.47,34.55c-7.58-2.98-16.87-1.38-18.94,4.02,1.84.92,1.84,3.33,1.84,4.93v5.4c0,1.6-.92,2.98-2.18,3.78,1.26.69,2.18,2.18,2.18,3.79,0,4.13-3.33,7.46-7.46,7.46s-7.46-3.33-7.46-7.46v-3.9c0-6.2,1.83-11.48,4.47-14.35-2.64-2.75-4.47-8.15-4.47-14.23v-3.9c0-4.13,3.32-7.46,7.46-7.46s7.46,3.33,7.46,7.46c0,3.79-.92,7.23-2.64,9.98.8.12,1.72.23,2.64.23,7,0,12.62-4.59,12.62-10.21v-2.87c0-9.53-7.69-17.22-17.21-17.22h-5.74c-9.41,0-17.22,7.69-17.22,17.22v6.77c0,6.08-1.72,11.48-4.36,14.23,2.64,2.87,4.36,8.15,4.36,14.35v6.77c0,5.14,2.27,9.74,5.84,12.89.44-.12.85-.17,1.25-.17.12,0,.24,0,.36.02-3.83-2.95-6.3-7.57-6.3-12.74v-6.77c0-5.74-1.49-11.02-4.02-14.35,2.53-3.21,4.02-8.49,4.02-14.23v-6.77c0-8.84,7.23-16.07,16.07-16.07h5.74c8.83,0,16.06,7.23,16.06,16.07v2.87c0,4.93-5.16,9.06-11.47,9.06-.23,0-.58,0-.81-.11,1.27-2.64,1.95-5.74,1.95-8.95,0-4.82-3.78-8.61-8.6-8.61s-8.61,3.79-8.61,8.61v3.9c0,5.74,1.49,11.02,4.13,14.23-2.64,3.33-4.13,8.61-4.13,14.35v3.9c0,4.71,3.9,8.61,8.61,8.61s8.6-3.9,8.6-8.61c0-1.49-.57-2.75-1.49-3.79.92-1.03,1.49-2.41,1.49-3.78v-5.4c0-1.38,0-3.79-1.49-5.28,1.38-2.41,5.05-4.01,9.53-4.01,1.83,0,3.67.22,5.39.68-2.06,2.07-3.1,5.63-3.1,8.61v5.4c0,1.37.58,2.75,1.61,3.78-1.03,1.04-1.61,2.3-1.61,3.79v2.87c0,8.84-7.23,16.07-16.06,16.07h-5.74c-1.68,0-3.3-.26-4.83-.75.1.4.11.81.03,1.21,1.53.45,3.14.69,4.8.69h5.74c9.52,0,17.21-7.69,17.21-17.22v-2.87c0-1.61.92-3.1,2.3-3.79-1.38-.8-2.3-2.18-2.3-3.78v-5.4c0-3.79,1.84-7.92,4.48-8.95Z"/>
        <path class="cls-3" d="M411.67,29.04c10.1-8.03,5.28-17.68,7.46-25.25-1.03.46-1.84.8-2.75.92v2.98c0,5.39.12,11.59-5.51,17.1.46,1.38.8,2.75.8,4.25Z"/>
        <path class="cls-3" d="M389.4,20.09v7.58c0,1.84.92,3.44,2.18,4.48v-8.26c0-4.13,3.33-7.46,7.46-7.46,1.03,0,2.07.23,3.1.46-1.95-1.61-4.36-2.52-7-2.52-3.1,0-5.74,2.52-5.74,5.74Z"/>
        <path class="cls-3" d="M407.77,51.31c0,6.88-5.63,12.62-12.63,12.62-4.13,0-7.46-3.33-7.46-7.46v-7.57c0-4.14,3.33-7.46,7.46-7.46,2.3,0,6.54,1.6,6.54,5.39,2.87,0,5.17-2.29,5.17-5.16,0-1.27-.46-2.53-1.26-3.45.8-.92,1.26-2.06,1.26-3.33,0-2.87-2.3-5.16-5.17-5.16,0,3.67-4.24,5.39-6.54,5.39-4.13,0-7.46-3.32-7.46-7.46v-7.57c0-4.13,3.33-7.46,7.46-7.46,7,0,12.63,5.62,12.63,12.62,10.21-8.03,5.28-17.67,7.46-25.25-5.4,2.53-9.3,0-20.09,0h-7.46c-2.41,0-4.7.58-6.31,1.49-1.61-.91-3.79-1.49-6.31-1.49-1.61,0-3.1.46-4.37,1.15,2.64,1.61,4.37,7.57,4.37,13.2v9.64c0,6.08-1.73,11.48-4.37,14.23,2.64,2.87,4.37,8.15,4.37,14.35v9.53c0,5.62-1.73,11.7-4.37,13.2.47.29.96.54,1.49.74.34-.31.67-.59.99-.86-.13-.03-.27-.07-.41-.11,2.3-2.87,3.44-8.27,3.44-12.97v-9.53c0-5.74-1.49-11.02-4.01-14.35,2.52-3.21,4.01-8.49,4.01-14.23v-9.64c0-4.59-1.14-10.1-3.44-12.86.8-.23,1.49-.34,2.3-.34,2.18,0,4.24.46,5.74,1.38l.57.34.57-.34c1.49-.92,3.68-1.38,5.74-1.38h7.46c4.13,0,7.35.34,9.87.69,1.84.23,3.45.46,5.05.46,1.27,0,2.53-.23,3.68-.46-.35,1.83-.23,3.79-.23,5.85,0,5.17.11,10.45-4.71,15.15-1.15-6.43-6.89-11.36-13.66-11.36-4.7,0-8.61,3.9-8.61,8.61v7.57c0,4.71,3.91,8.61,8.61,8.61,2.41,0,6.77-1.61,7.58-5.28.69.23,1.26.58,1.83,1.03.81.81,1.15,1.84,1.15,2.87,0,.92-.34,1.84-.92,2.64l-.69.69.69.81c.58.68.92,1.6.92,2.64,0,1.83-1.26,3.44-2.98,3.9-.81-3.67-5.17-5.28-7.58-5.28-4.7,0-8.61,3.79-8.61,8.61v7.57c0,4.71,3.91,8.61,8.61,8.61,6.77,0,12.51-4.94,13.66-11.48,4.82,4.82,4.71,10.1,4.71,15.15,0,2.07-.12,4.02.23,5.97-1.15-.34-2.41-.46-3.68-.46-1.6,0-3.21.23-5.05.46-2.52.23-5.74.69-9.87.69h-7.46c-.94,0-1.9-.12-2.81-.33.03.39-.02.79-.14,1.17.93.21,1.93.31,2.95.31h7.46c10.79,0,14.69-2.53,20.09,0-2.18-7.58,2.75-17.22-7.46-25.25Z"/>
        <path class="cls-3" d="M408.57,34.55v.34c0,1.15-.34,2.3-.92,3.33.57,1.03.92,2.18.92,3.44,0,2.75-1.61,5.17-4.02,6.2.57.8.92,1.72.92,2.75h.57v-2.87l2.52,1.95c1.26-1.03,2.07-2.52,2.07-4.25,0-1.26-.46-2.41-1.26-3.33.8-.92,1.26-2.07,1.26-3.44,0-1.72-.8-3.21-2.07-4.13Z"/>
        <path class="cls-3" d="M419.13,80.35c-5.51-2.53-9.41,0-20.09,0h-7.46c-2.52,0-4.7-.58-6.31-1.5-.97.55-2.19.98-3.53,1.24.65-.83,1.3-1.61,1.93-2.32,1.26.34,2.61.51,4.01.51h7.46c4.36,0,7.58-.46,10.22-.8,3.9-.46,6.31-.69,9.18.57l3.44,1.61-1.03-3.56c-.69-2.18-.69-4.71-.57-7.23,0-3.22,0-6.54-1.04-9.99,5.17,7.23,1.95,15.15,3.79,21.47Z"/>
        <path class="cls-3" d="M409.14,55.21c-1.72,6.08-7.34,10.56-14,10.56-5.16,0-9.3-4.13-9.3-9.3v-7.57c0-5.17,4.14-9.41,9.3-9.41,2.53,0,6.77,1.49,8.04,5.05,1.03-.58,1.72-1.61,1.72-2.87,0-.81-.23-1.61-.69-2.18l-1.15-1.27,1.15-1.26c.46-.57.69-1.26.69-2.07,0-.91-.23-1.72-.92-2.29-.23-.23-.46-.46-.8-.58-1.27,3.45-5.51,5.05-8.04,5.05-5.16,0-9.3-4.24-9.3-9.41v-7.57c0-5.17,4.14-9.41,9.3-9.41,6.66,0,12.28,4.47,14,10.67,3.68-4.25,3.56-8.84,3.56-13.66,0-1.6,0-3.21.12-4.93-.92.23-1.84.23-2.76.23-1.6,0-3.21-.12-5.16-.35-2.53-.34-5.63-.69-9.76-.69h-7.46c-1.95,0-3.9.46-5.28,1.27l-1.03.57-.92-.57c-1.38-.81-3.33-1.27-5.39-1.27h-1.04c1.95,3.1,2.99,8.15,2.99,12.4v9.64c0,5.62-1.38,10.79-3.91,14.23,2.53,3.45,3.91,8.61,3.91,14.35v9.53c0,4.36-1.04,9.29-2.99,12.39,2.11-1.62,3.94-2.43,5.47-2.43.89,0,1.6.19,2.12.34.16.05.38.11.46.12,1.12,0,2.12.66,2.57,1.68,0,.01.01.02.01.03.95.25,1.99.38,3.03.38h7.46c4.13,0,7.23-.35,9.76-.69,1.95-.23,3.56-.46,5.16-.46.92,0,1.84.11,2.76.23-.12-1.61-.12-3.22-.12-4.94,0-4.7.12-9.29-3.56-13.54ZM381.25,45.34c-.45-2.53-1.26-4.94-2.41-7.12,1.15-2.06,1.96-4.47,2.41-7,.69,2.76,2.18,5.17,4.25,7-2.07,1.95-3.56,4.36-4.25,7.12Z"/>
        <path class="cls-3" d="M389.4,48.9v7.58c0,1.72.92,3.33,2.18,4.48v-8.26c0-4.13,3.33-7.46,7.46-7.46h.46c-1.03-1.38-3.33-2.07-4.36-2.07-3.1,0-5.74,2.52-5.74,5.74Z"/>
      </g>
      <path class="cls-1" d="M330.07,77.25c.1.07.2.14.3.2.02-.03.04-.05.07-.07-.13-.04-.25-.08-.37-.13Z"/>
      <path class="cls-2" d="M36.42,94.75c0-20.78,23.32-37.23,42.64-37.23,6.16,0,10.49,1.37,10.49,5.16,0,4.33-4.66,8.08-7.54,8.08-2.46,0-2.62-1.29-4.71-1.92,2.08-1.96,8.7-10.29,2.96-10.29-16.66,0-37.85,22.32-37.85,41.22,0,8.08,4.29,12.16,11.45,12.16,11.2,0,22.57-9.99,27.69-16.91h1.04c-5.66,7.62-17.24,17.95-28.02,17.95s-18.16-6.5-18.16-18.24ZM78.51,102.66c.42-4.21,3.17-8.33,6.37-11.99,4.91-5.58,5.54-3.33,8.7-3.33-2.75,3.91-10.04,17.78-10.04,19.78,0,.17.12.29.29.29,1.87,0,8.75-12.33,13.08-16.74,4.91-5.58,5.54-3.33,8.7-3.33-2.75,3.91-10.04,17.78-10.04,19.78,0,.17.12.29.29.29,1.87,0,8.45-8.58,10.83-12.37h1.04c-2.83,4.54-9.58,13.78-12.83,13.78s-4.66-3.29-4.37-6.16c.08-.96.33-2,.67-2.96-3.12,4.71-6.08,9.12-8.33,9.12-3.29,0-4.66-3.29-4.37-6.16ZM103.95,102.66c.29-2.87,1.12-5.83,6.54-13.41,1.12-1.58,2.46-3.33,3.79-4.96-10.49-3.62-19.45-8.74-26.73-8.74-3.62,0-8.5,1.79-10.99,4.04-.54-.37-.67-.96-.21-1.29,2.87-2.08,7.04-4.08,12.33-4.08,8.33,0,17.16,4.91,26.86,8.54,3.62-4.25,7.5-7.87,9.79-7.87.96,0,1.71.46,2.54.46-2.08,2.29-4.46,5.33-7.04,9.24,1.79.54,3.66,1,5.5,1.33,6.04-8.04,12.95-15.7,15.57-15.7.96,0,1.71.46,2.54.46-2.67,2.92-7.08,8.99-11.49,15.99h.96c7.54,0,11.49-3.58,11.49-9.62.71-.12,1.17.54,1.17,1.67,0,6.29-7.08,8.99-14.03,8.99h-.21c-2.12,3.41-4.25,7.04-6.08,10.54-2.17,4.12-3.83,7.91-3.83,8.87,0,.17.12.29.29.29,1.87,0,8.45-8.58,10.83-12.37h1.04c-2.83,4.54-9.58,13.78-12.83,13.78s-4.66-3.29-4.37-6.16c.08-.87.25-1.83.58-2.87-3.21,4.37-7.29,9.04-9.62,9.04-3.29,0-4.66-3.29-4.37-6.16ZM119.98,95.25c.92-1.62,2.21-3.62,3.91-6l1.54-2.12c-1.87-.29-3.71-.67-5.54-1.12-2.21,3.41-4.58,7.5-7.08,12.24-2.17,4.12-3.83,7.91-3.83,8.87,0,.17.12.29.29.29,1.83,0,8.2-8.25,10.7-12.16ZM130.47,102.66c.42-4.21,3.16-8.33,6.37-11.99,4.91-5.58,5.54-3.33,8.7-3.33-2.75,3.91-10.04,17.78-10.04,19.78,0,.17.12.29.29.29,1.87,0,8.45-8.58,10.83-12.37h1.04c-2.83,4.54-9.58,13.78-12.83,13.78s-4.66-3.29-4.37-6.16ZM143.59,80.35c0-1.83,1.5-3.33,3.33-3.33s3.33,1.5,3.33,3.33-1.5,3.33-3.33,3.33-3.33-1.5-3.33-3.33ZM155.49,102.66c.75-5.66,6.95-12.12,6.95-14.45,0-.37-.25-.58-.62-.58-1.62,0-6.16,5.21-9.29,10.62-1.33,2.33-2.5,4.66-3.33,6.54-.5,1.17-.96,2.33-1.33,3.37-1.58,0-3.21-.96-4.04-1.87-.33-.37-.46-.92-.46-1.54,0-4.04,3.12-10.49,6.29-14.07,4.91-5.58,5.62-3.33,8.79-3.33-.88,1.25-2.08,3.21-3.33,5.41,2.58-3.41,5.33-6.08,7.2-6.08,2.33,0,4.91,2.54,4.91,4.62,0,1.92-1.21,4.21-2.5,6.79-1.96,3.87-4.25,7.66-4.25,9.04,0,.17.12.29.29.29,1.87,0,8.41-8.58,10.79-12.37h1.04c-2.83,4.54-9.54,13.78-12.78,13.78-3,0-4.71-3.29-4.33-6.16ZM157.57,134.56c0-4.33,8.12-10.83,17.49-18.32,1.5-3.08,3-6.5,4.29-9.87.67-1.75,1.79-4.66,3.25-7.7-3.29,5.04-6.58,10.16-9,10.16-3,0-5.21-3.29-4.83-6.5.87-7.54,8.41-15.66,16.66-15.66,1.79,0,3.21.58,4.46,1.29.96-.71,1.92-1.12,2.92-1.12,1.08,0,2.12.5,3.54.5-2.04,2.87-6.5,11.29-8.75,16.16-.96,2.08-1.96,4.12-3.04,6.16,4.91-4.37,9.54-9.24,12.87-14.62h1.04c-3.75,6.33-9.29,11.91-15.16,16.95-7.37,13.37-16.74,24.73-23.32,24.73-1.46,0-2.42-.83-2.42-2.17ZM174.1,118.24c-8.54,6.83-15.62,12.7-15.62,16.32,0,.75.46,1.25,1.21,1.25,3.62,0,9.33-7.58,14.41-17.57ZM186.97,91.01c.71-.96,1.46-1.79,2.21-2.46-.67-.29-1.42-.5-2.21-.5-5.83,0-12.7,15.07-12.7,19.07,0,.17.12.29.29.29,1.83,0,8.54-11.74,12.41-16.41ZM212.99,94.75c0-20.78,23.32-37.23,42.64-37.23,6.16,0,10.49,1.37,10.49,5.16,0,4.33-4.66,8.08-7.54,8.08-2.46,0-2.62-1.29-4.71-1.92,2.08-1.96,8.7-10.29,2.96-10.29-16.66,0-37.85,22.32-37.85,41.22,0,8.08,4.29,12.16,11.45,12.16,11.2,0,22.57-9.99,27.69-16.91h1.04c-5.66,7.62-17.24,17.95-28.02,17.95s-18.16-6.5-18.16-18.24ZM255.83,102.12c0-7.66,8.54-15.45,16.78-15.45,3.21,0,5.54,2,5.54,5.5s-2.5,7.87-5.87,11.37c.17.37.5.58,1,.58,2.79,0,6.7-5.29,9.08-9.08h1.04c-2.83,4.54-7,10.41-11.16,10.41-.62,0-1.21-.08-1.75-.25-2.54,2.17-5.41,3.62-8.04,3.62-3.42,0-6.62-2.42-6.62-6.7ZM268.16,101.67c.12-1.75,1.29-3.37,2.79-4.25,2.04-3.46,3.58-6.87,3.58-8.49,0-.71-.38-1.25-.88-1.25-3.33,0-12.78,13.7-12.78,18.95,0,.71.37,1.25.87,1.25,1.42,0,3.96-2.71,6.41-6.2ZM291.22,102.66c.75-5.66,6.95-12.12,6.95-14.45,0-.37-.25-.58-.62-.58-1.62,0-6.16,5.21-9.29,10.62-1.33,2.33-2.5,4.66-3.33,6.54-.5,1.17-.96,2.33-1.33,3.37-1.58,0-3.21-.96-4.04-1.87-.33-.37-.46-.92-.46-1.54,0-4.04,3.12-10.49,6.29-14.07,4.91-5.58,5.62-3.33,8.79-3.33-.87,1.25-2.08,3.21-3.33,5.41,2.58-3.41,5.33-6.08,7.2-6.08,2.33,0,4.91,2.54,4.91,4.62,0,1.92-1.21,4.21-2.5,6.79-1.96,3.87-4.25,7.66-4.25,9.04,0,.17.12.29.29.29,1.87,0,8.41-8.58,10.79-12.37h1.04c-2.83,4.54-9.54,13.78-12.78,13.78-3,0-4.71-3.29-4.33-6.16ZM304.55,102.66c.29-2.87,1.12-5.83,6.54-13.41l.71-1h-2.46l.5-.92h2.67c4.5-6,10.33-12.45,13.41-12.45.96,0,1.71.46,2.54.46-2.54,2.79-5.54,6.75-8.83,11.99h3.5l-.5.92h-3.54c-1.79,2.91-3.71,6.25-5.66,9.99-2.17,4.12-3.83,7.91-3.83,8.87,0,.17.12.29.29.29,1.87,0,8.45-8.58,10.83-12.37h1.04c-2.83,4.54-9.58,13.78-12.83,13.78s-4.66-3.29-4.37-6.16ZM318.2,102.54c0-7.66,8.54-15.87,16.37-15.87,3.33,0,5.46,1.21,5.46,3.04,0,3.87-7.2,5.71-13.08,7.29-1.54,2.87-2.62,5.91-2.62,8.29,0,1.5.75,2.46,1.96,2.46,4.12,0,11.95-8.91,14.33-12.7h1.04c-2.83,4.54-10.41,13.78-16.16,13.78-3.83,0-7.29-1.58-7.29-6.29ZM336.44,88.26c0-.42-.25-.67-.75-.67-1.96,0-5.5,3.83-8.12,8.33,4.29-1.29,8.87-5.91,8.87-7.66ZM337.02,101.58c0-4.37,2.75-7.04,3.96-7.04.38,0,.67.21.67.5-2.67,1.71-3.71,4.37-3.71,6.54,0,3.62,2.12,6.04,5,6.04,1.96,0,3.91-1,3.91-5.37,0-2.62-1.25-6-1.29-8.37,0-5.04,3.62-7.2,8.58-7.2,3.87,0,5.04,1.87,5.04,3.62,0,2.54-1.54,3.91-3.58,3.91-1.42,0-2.04-.92-2.96-1.25,3.17-3,3.29-5.37,1.17-5.37-1.83,0-2.58.87-2.58,2.71,0,3.12,1.96,6.37,1.96,9.33,0,6-4.46,8.99-9.41,8.99-4.25,0-6.75-2.96-6.75-7.04ZM358.13,102.66c.29-2.87,1.12-5.83,6.54-13.41l.71-1h-2.46l.5-.92h2.67c4.5-6,10.33-12.45,13.41-12.45.96,0,1.71.46,2.54.46-2.54,2.79-5.54,6.75-8.83,11.99h3.5l-.5.92h-3.54c-1.79,2.91-3.71,6.25-5.66,9.99-2.17,4.12-3.83,7.91-3.83,8.87,0,.17.12.29.29.29,1.87,0,8.45-8.58,10.83-12.37h1.04c-2.83,4.54-9.58,13.78-12.83,13.78s-4.66-3.29-4.37-6.16Z"/>
    </g>
  </g>
</svg>