<?xml version="1.0" encoding="UTF-8"?>
<svg id="Layer_2" data-name="Layer 2" xmlns="http://www.w3.org/2000/svg" xmlns:xlink="http://www.w3.org/1999/xlink" viewBox="0 0 116.17 53.91">
  <defs>
    <style>
      .cls-1 {
        font-size: 1.63px;
      }

      .cls-1, .cls-2, .cls-3, .cls-4 {
        fill: #183634;
      }

      .cls-1, .cls-4 {
        font-family: Montserrat-Bold, Montserrat;
        font-variation-settings: 'wght' 700;
        font-weight: 700;
      }

      .cls-5 {
        letter-spacing: 0em;
      }

      .cls-2 {
        font-family: CascadiaCode-Regular, 'CascadiaCode Regular';
        font-size: 1.92px;
      }

      .cls-6 {
        letter-spacing: 0em;
      }

      .cls-7 {
        fill: none;
      }

      .cls-8 {
        letter-spacing: -.01em;
      }

      .cls-4 {
        font-size: 7.76px;
      }

      .cls-9 {
        letter-spacing: .3em;
      }

      .cls-10 {
        clip-path: url(#clippath);
      }
    </style>
    <clipPath id="clippath">
      <rect class="cls-7" width="116.17" height="53.91"/>
    </clipPath>
  </defs>
  <g id="Layer_1-2" data-name="Layer 1">
    <g class="cls-10">
      <path class="cls-3" d="M103.78,53.91H12.39c-2.53,0-4.6-1.88-4.6-4.18v-1.48c0-.67.59-1.21,1.31-1.21h.95c1.12,0,2.04-.82,2.04-1.82s-.92-1.82-2.04-1.82h-5.47C2.06,43.39,0,41.52,0,39.21V14.7C0,12.39,2.06,10.52,4.6,10.52h5.47c1.12,0,2.04-.82,2.04-1.82s-.92-1.82-2.04-1.82h-.95c-.72,0-1.31-.54-1.31-1.21v-1.48C7.8,1.88,9.86,0,12.39,0h91.39c2.53,0,4.6,1.88,4.6,4.18v1.48c0,.67-.59,1.21-1.31,1.21h-.95c-1.12,0-2.04.82-2.04,1.82s.91,1.82,2.04,1.82h5.47c2.53,0,4.6,1.88,4.6,4.18v24.51c0,2.31-2.06,4.18-4.6,4.18h-5.47c-1.12,0-2.04.82-2.04,1.82s.91,1.82,2.04,1.82h.95c.72,0,1.31.54,1.31,1.21v1.48c0,2.31-2.06,4.18-4.6,4.18M9.11,47.57c-.43,0-.78.3-.78.68v1.48c0,2.01,1.82,3.64,4.06,3.64h91.39c2.24,0,4.06-1.63,4.06-3.64v-1.48c0-.37-.35-.68-.77-.68h-.95c-1.42,0-2.58-1.06-2.58-2.36s1.15-2.36,2.58-2.36h5.47c2.24,0,4.06-1.64,4.06-3.65V14.7c0-2.01-1.82-3.64-4.06-3.64h-5.47c-1.42,0-2.58-1.06-2.58-2.36s1.15-2.36,2.58-2.36h.95c.43,0,.77-.3.77-.68v-1.48c0-2.01-1.82-3.65-4.06-3.65H12.39c-2.24,0-4.06,1.64-4.06,3.65v1.48c0,.37.35.68.78.68h.95c1.42,0,2.58,1.06,2.58,2.36s-1.16,2.36-2.58,2.36h-5.47c-2.24,0-4.06,1.64-4.06,3.64v24.51c0,2.01,1.82,3.65,4.06,3.65h5.47c1.42,0,2.58,1.06,2.58,2.36s-1.16,2.36-2.58,2.36h-.95ZM91.86,36.29c-1.51,0-2.83-.61-3.71-1.72l-2.92-3.66h-2.22l-.2,1.57c-.27,2.13-1.66,3.06-2.9,3.06-1.22-.01-2.56-.97-2.78-3.06l-.16-1.56h-12.27c-1.47,2.02-3.93,3.22-6.6,3.22s-5.13-1.2-6.6-3.22h-12.27l-.17,1.56c-.22,2.1-1.56,3.05-2.78,3.06-1.26,0-2.63-.92-2.9-3.06l-.2-1.57h-2.22l-2.92,3.66c-.89,1.11-2.21,1.72-3.71,1.72s-2.83-.61-3.71-1.72l-2.92-3.66h-2.27l-.23,1.57c-.31,2.11-1.62,3.05-2.79,3.05h-.03c-1.16-.02-2.44-.97-2.69-3.06-.57-4.65-.57-6.4,0-11.05.25-2.09,1.53-3.04,2.69-3.05h.03c1.17,0,2.48.94,2.79,3.05l.23,1.57h2.27l2.92-3.66c.89-1.11,2.21-1.72,3.71-1.72s2.83.61,3.71,1.72l2.92,3.66h2.22l.2-1.57c.27-2.12,1.64-3.06,2.88-3.06h.03c1.22.01,2.56.97,2.78,3.06l.17,1.56h12.27c1.47-2.02,3.93-3.22,6.6-3.22s5.13,1.2,6.6,3.22h12.27l.16-1.56c.22-2.1,1.56-3.05,2.78-3.06,1.23.02,2.63.93,2.9,3.06l.2,1.57h2.22l2.92-3.66c.89-1.11,2.21-1.72,3.71-1.72s2.83.61,3.71,1.72l2.93,3.66h2.27l.23-1.57c.31-2.11,1.62-3.05,2.79-3.05h.03c1.16.02,2.43.97,2.69,3.05.56,4.65.56,6.4,0,11.05-.25,2.09-1.53,3.04-2.69,3.06h-.03c-1.17,0-2.48-.94-2.79-3.05l-.23-1.57h-2.27l-2.93,3.66c-.89,1.11-2.21,1.72-3.71,1.72M82.53,30.38h2.95l3.09,3.86c.78.98,1.95,1.52,3.29,1.52s2.51-.54,3.29-1.52l3.09-3.86h3l.3,2.03c.26,1.79,1.32,2.59,2.26,2.59h.02c.85-.01,1.93-.69,2.16-2.58l.27.03-.27-.03c.56-4.59.56-6.33,0-10.92-.23-1.89-1.31-2.57-2.16-2.58h-.02c-.94,0-2,.8-2.26,2.59l-.3,2.03h-3l-3.09-3.86c-.78-.98-1.95-1.52-3.29-1.52s-2.51.54-3.29,1.52l-3.09,3.86h-2.95l-.26-2.03c-.23-1.8-1.35-2.57-2.36-2.59-.99.01-2.06.81-2.25,2.58l-.22,2.04h-13.03l-.08-.11c-1.36-1.94-3.69-3.11-6.24-3.11s-4.88,1.16-6.24,3.11l-.08.11h-13.03l-.22-2.04c-.19-1.77-1.27-2.57-2.25-2.58h-.02c-1,0-2.11.8-2.34,2.59l-.26,2.03h-2.95l-3.09-3.86c-.78-.98-1.95-1.52-3.29-1.52s-2.51.54-3.29,1.52l-3.09,3.86h-3l-.3-2.03c-.27-1.79-1.32-2.59-2.26-2.59h-.02c-.85.01-1.93.69-2.16,2.58-.56,4.59-.56,6.33,0,10.92.23,1.89,1.31,2.57,2.16,2.58h.02c.94,0,2-.8,2.26-2.59l.3-2.03h3l3.09,3.86c.78.98,1.95,1.52,3.29,1.52s2.51-.54,3.29-1.52l3.09-3.86h2.95l.26,2.03c.23,1.79,1.34,2.59,2.34,2.59h.02c.99-.01,2.06-.81,2.25-2.58l.22-2.04h13.03l.08.12c1.36,1.94,3.69,3.1,6.24,3.1s4.88-1.16,6.24-3.1l.08-.12h13.03l.22,2.04c.19,1.77,1.27,2.57,2.25,2.58,1,0,2.13-.78,2.36-2.59l.26-2.03Z"/>
      <path class="cls-3" d="M103.78,51.74H12.39c-.67,0-1.32-.24-1.78-.66-.24-.22-.41-.46-.52-.73l-.42-1.03,1.1-.18c2.03-.33,3.5-1.98,3.5-3.93,0-2.2-1.89-3.99-4.21-3.99h-5.47c-.67,0-1.32-.24-1.78-.66-.42-.38-.64-.86-.64-1.36V14.7c0-.5.23-.98.64-1.36.46-.42,1.11-.66,1.79-.66h5.47c2.32,0,4.21-1.79,4.21-3.98,0-1.95-1.47-3.6-3.5-3.93l-1.1-.18.41-1.03c.11-.27.28-.52.52-.73.46-.42,1.11-.66,1.78-.66h91.39c.67,0,1.32.24,1.78.66.24.22.42.46.52.73l.41,1.03-1.1.18c-2.03.33-3.5,1.98-3.5,3.93,0,2.2,1.89,3.98,4.2,3.98h5.47c.67,0,1.32.24,1.78.66.42.38.65.86.65,1.36v24.51c0,.5-.23.98-.65,1.36-.46.42-1.11.66-1.78.66h-5.47c-2.32,0-4.2,1.79-4.2,3.99,0,1.95,1.47,3.6,3.5,3.93l1.1.18-.41,1.03c-.11.27-.28.52-.52.73-.46.42-1.11.66-1.78.66M4.6,12.68c-.67,0-1.32.24-1.78.66-.42.38-.64.86-.64,1.36v24.51c0,.5.23.98.64,1.36.46.42,1.11.66,1.78.66h5.47c2.32,0,4.21,1.79,4.21,3.99,0,1.95-1.47,3.6-3.5,3.93l-1.1.18.42,1.03c.11.27.28.52.52.73.46.42,1.11.66,1.78.66h91.39c.67,0,1.32-.24,1.78-.66.24-.22.41-.46.52-.73l.41-1.03-1.1-.18c-2.03-.33-3.5-1.98-3.5-3.93,0-2.2,1.89-3.99,4.21-3.99h5.47c.67,0,1.32-.24,1.78-.66.42-.38.64-.86.64-1.36V14.7c0-.5-.23-.98-.65-1.36-.46-.42-1.11-.66-1.78-.66h-5.47c-2.32,0-4.21-1.79-4.21-3.99,0-1.95,1.47-3.6,3.5-3.93l1.1-.18-.41-1.03c-.11-.27-.28-.52-.52-.73-.46-.42-1.11-.66-1.78-.66H12.39c-.67,0-1.32.24-1.78.66-.24.21-.41.46-.52.73l-.41,1.03,1.1.17c2.03.33,3.5,1.98,3.5,3.93,0,2.2-1.89,3.99-4.21,3.99h-5.47Z"/>
      <path class="cls-3" d="M103.78,50.85H12.39c-.45,0-.89-.16-1.19-.43-.14-.12-.24-.26-.29-.4.19-.03.37-.07.55-.12-.18.05-.36.09-.55.12.06.14.16.28.29.4.3.27.73.43,1.19.43h91.39c.45,0,.88-.16,1.19-.43.09-.08.22-.22.29-.4-.21-.03-.42-.08-.62-.14.2.06.41.11.62.14-.07.18-.2.32-.29.4-.3.27-.74.43-1.19.43M15.08,46.07c.05-.28.08-.57.08-.86,0-2.69-2.28-4.87-5.09-4.87h-5.47c-.45,0-.89-.16-1.19-.43-.16-.15-.35-.39-.35-.7V14.7c0-.32.19-.55.35-.7.3-.27.74-.43,1.19-.43h5.47c2.81,0,5.09-2.19,5.09-4.87,0-.29-.03-.58-.08-.86.05.28.08.57.08.86,0,2.69-2.29,4.87-5.09,4.87h-5.47c-.45,0-.89.16-1.19.43-.16.15-.35.38-.35.7v24.51c0,.31.19.55.35.7.3.27.73.43,1.19.43h5.47c2.81,0,5.09,2.19,5.09,4.88,0,.29-.03.58-.08.86M101.09,46.07c-.05-.28-.08-.57-.08-.86,0-2.69,2.29-4.88,5.1-4.88h5.47c.45,0,.89-.16,1.19-.43.16-.15.35-.38.35-.7V14.7c0-.31-.19-.55-.35-.7-.3-.27-.73-.43-1.19-.43h-5.47c-2.81,0-5.1-2.19-5.1-4.87,0-.29.03-.58.08-.86-.05.28-.08.57-.08.86,0,2.69,2.28,4.87,5.09,4.87h5.47c.45,0,.89.16,1.19.43.16.15.35.38.35.7v24.51c0,.32-.19.55-.35.7-.3.27-.73.43-1.19.43h-5.47c-2.81,0-5.09,2.19-5.09,4.87,0,.29.03.58.08.86M91.86,36.02c-1.42,0-2.67-.58-3.5-1.62l-3.01-3.76h-2.58l-.23,1.8c-.25,1.95-1.49,2.82-2.61,2.82h-.02c-1.1-.01-2.31-.89-2.52-2.82l-.19-1.8h-12.65c-1.41,2.02-3.83,3.22-6.46,3.22s-5.05-1.2-6.46-3.22h-12.65l-.19,1.8c-.21,1.93-1.41,2.81-2.52,2.82h-.02c-1.12,0-2.36-.87-2.61-2.82l-.23-1.8h-2.58s-3,3.76-3,3.76c-.84,1.04-2.08,1.62-3.5,1.62s-2.67-.58-3.51-1.62l-3-3.76h-2.64l-.26,1.8c-.29,1.95-1.47,2.82-2.53,2.82h-.03c-1.04-.01-2.19-.89-2.42-2.82-.56-4.62-.56-6.37,0-10.98.23-1.93,1.39-2.81,2.42-2.82h.03c1.06,0,2.24.87,2.53,2.82l.26,1.8h2.63s3-3.76,3-3.76c.84-1.04,2.08-1.62,3.51-1.62s2.67.57,3.5,1.62l3,3.76h2.58l.23-1.8c.25-1.95,1.49-2.83,2.61-2.83,0,0,.02,0,.02,0,1.11.01,2.31.89,2.52,2.82l.19,1.8h12.65c1.41-2.02,3.83-3.22,6.46-3.22s5.05,1.2,6.46,3.22h12.65l.19-1.8c.21-1.93,1.41-2.81,2.52-2.82,0,0,.02,0,.02,0,1.12,0,2.36.87,2.61,2.83l.23,1.8h2.58s3-3.76,3-3.76c.84-1.04,2.08-1.62,3.5-1.62s2.67.57,3.51,1.62l3.01,3.76h2.63l.26-1.8c.29-1.95,1.47-2.82,2.53-2.82h.03c1.04.01,2.19.89,2.43,2.82.56,4.62.56,6.36,0,10.98-.23,1.93-1.39,2.81-2.43,2.82h-.03c-1.05,0-2.24-.87-2.53-2.82l-.26-1.8h-2.63s-3.01,3.76-3.01,3.76c-.83,1.04-2.08,1.62-3.51,1.62M85.35,30.65l3.01,3.76c.83,1.04,2.08,1.62,3.5,1.62s2.67-.57,3.5-1.62l3.01-3.76h2.63l.27,1.8c.29,1.95,1.47,2.82,2.53,2.82h.03c1.04-.01,2.19-.89,2.42-2.82h0,0c.56-4.62.56-6.36,0-10.98-.23-1.93-1.39-2.8-2.42-2.82h-.03c-1.05,0-2.24.87-2.53,2.82l-.26,1.8h-2.64l-3.01-3.76c-.84-1.04-2.08-1.62-3.5-1.62s-2.67.58-3.5,1.62l-3.01,3.76h-2.58l-.23-1.8c-.25-1.95-1.49-2.82-2.61-2.82,0,0-.02,0-.02,0-1.1.01-2.31.89-2.52,2.82l-.19,1.8h-12.65c-1.41-2.02-3.83-3.22-6.46-3.22s-5.05,1.2-6.46,3.22h-12.65l-.19-1.8c-.21-1.93-1.41-2.81-2.52-2.82,0,0-.02,0-.02,0-1.12,0-2.36.87-2.61,2.82l-.23,1.8h-2.58l-3.01-3.76c-.84-1.04-2.08-1.62-3.5-1.62s-2.67.58-3.5,1.62l-3,3.76h-2.64l-.26-1.8c-.29-1.95-1.47-2.82-2.53-2.82h-.03c-1.04.01-2.19.89-2.42,2.82-.56,4.62-.56,6.36,0,10.98.23,1.93,1.39,2.8,2.42,2.82h.03c1.06,0,2.24-.87,2.53-2.82l.26-1.8h2.64l3.01,3.76c.84,1.04,2.08,1.62,3.5,1.62s2.67-.57,3.5-1.62l3-3.76h2.58l.23,1.8c.25,1.95,1.49,2.82,2.61,2.82h.02c1.1-.01,2.31-.89,2.52-2.82l.19-1.8h12.65c1.41,2.02,3.83,3.22,6.46,3.22s5.05-1.2,6.46-3.22h12.65l.19,1.8c.21,1.93,1.41,2.81,2.52,2.82h.02c1.12,0,2.36-.87,2.61-2.82l.23-1.8h2.58ZM11.53,4.03c-.2-.06-.41-.1-.62-.14.06-.14.15-.28.29-.41.3-.27.73-.43,1.19-.43h91.39c.45,0,.89.16,1.19.43.14.13.24.26.29.41-.19.03-.37.07-.55.12.18-.05.36-.09.55-.12-.06-.14-.16-.28-.29-.4-.3-.27-.73-.43-1.19-.43H12.39c-.45,0-.89.16-1.19.43-.14.13-.24.26-.29.4.21.03.42.08.62.14"/>
      <text class="cls-4" transform="translate(29.33 13.16)"><tspan class="cls-5" x="0" y="0">C</tspan><tspan class="cls-8" x="5.6" y="0">U</tspan><tspan class="cls-6" x="11.6" y="0">T</tspan><tspan x="16.47" y="0">TINGEDGE</tspan></text>
      <text class="cls-4" transform="translate(48.27 44.23)"><tspan x="0" y="0">MAN</tspan></text>
      <path class="cls-3" d="M69.42,39.81c-.78,0-1.41-.63-1.41-1.41s.63-1.41,1.41-1.41,1.41.63,1.41,1.41-.63,1.41-1.41,1.41M69.42,37.14c-.7,0-1.27.57-1.27,1.27s.57,1.27,1.27,1.27,1.27-.57,1.27-1.27-.57-1.27-1.27-1.27"/>
      <text class="cls-1" transform="translate(68.82 38.96)"><tspan x="0" y="0">R</tspan></text>
      <text class="cls-2" transform="translate(46.44 48.86)"><tspan class="cls-9" x="0" y="0" xml:space="preserve">EST.  27.08.2</tspan><tspan x="17.3" y="0">1</tspan></text>
    </g>
  </g>
</svg>