<?xml version="1.0" encoding="UTF-8"?>
<svg id="Layer_2" data-name="Layer 2" xmlns="http://www.w3.org/2000/svg" viewBox="0 0 128.93 59.66">
  <defs>
    <style>
      .cls-1 {
        stroke: #fbeeba;
        stroke-width: .28px;
      }

      .cls-1, .cls-2, .cls-3 {
        fill-rule: evenodd;
      }

      .cls-1, .cls-3 {
        fill: none;
        stroke-miterlimit: 10;
      }

      .cls-2, .cls-4 {
        fill: #fbeeba;
        stroke-width: 0px;
      }

      .cls-3 {
        stroke: #fff;
        stroke-width: .06px;
      }
    </style>
  </defs>
  <g id="Layer_1-2" data-name="Layer 1">
    <g>
      <path class="cls-1" d="M123.98,11.84h-6.08c-1.41,0-2.57-1.04-2.57-2.32s1.16-2.32,2.57-2.32h1.06c.64,0,1.16-.47,1.16-1.05v-1.65c0-2.4-2.16-4.35-4.81-4.35H13.63c-2.65,0-4.81,1.96-4.81,4.35v1.65c0,.58.52,1.05,1.16,1.05h1.06c1.41,0,2.57,1.04,2.57,2.32s-1.16,2.32-2.57,2.32h-6.08C2.3,11.84.14,13.8.14,16.19v27.27c0,2.4,2.16,4.35,4.81,4.35h6.08c1.41,0,2.57,1.04,2.57,2.32s-1.16,2.32-2.57,2.32h-1.06c-.64,0-1.16.47-1.16,1.05v1.65c0,2.4,2.16,4.35,4.81,4.35h101.67c2.65,0,4.81-1.96,4.81-4.35v-1.65c0-.58-.52-1.05-1.16-1.05h-1.06c-1.41,0-2.57-1.05-2.57-2.32s1.16-2.32,2.57-2.32h6.08c2.65,0,4.81-1.96,4.81-4.35v-27.27c0-2.4-2.16-4.35-4.81-4.35ZM118.05,35.94c-.51,4.19-4.92,4.18-5.54,0l-.29-2h-2.93l-3.34,4.18c-.93,1.17-2.31,1.8-3.9,1.8s-2.96-.63-3.9-1.8l-3.34-4.18h-2.87l-.26,2c-.54,4.18-5.28,4.19-5.73,0l-.21-2h-14.07c-1.51,2.15-4.16,3.58-7.19,3.58s-5.68-1.43-7.19-3.58h-14.07l-.21,2c-.44,4.19-5.19,4.18-5.73,0l-.26-2h-2.87l-3.34,4.18c-.93,1.17-2.31,1.8-3.9,1.8s-2.96-.63-3.9-1.8l-3.34-4.18h-2.93l-.29,2c-.62,4.18-5.03,4.19-5.54,0-.62-5.14-.62-7.08,0-12.22.51-4.19,4.92-4.18,5.54,0l.29,2h2.93l3.34-4.18c.93-1.17,2.31-1.8,3.9-1.8s2.96.63,3.9,1.8l3.34,4.18h2.87l.26-2c.54-4.18,5.28-4.19,5.73,0l.21,2h14.07c1.51-2.15,4.16-3.58,7.19-3.58s5.68,1.43,7.19,3.58h14.07l.21-2c.44-4.19,5.19-4.18,5.73,0l.26,2h2.87l3.34-4.18c.93-1.17,2.31-1.8,3.9-1.8s2.96.63,3.9,1.8l3.34,4.18h2.93l.29-2c.62-4.18,5.03-4.19,5.54,0,.62,5.14.62,7.08,0,12.22Z"/>
      <path class="cls-3" d="M117.19,35.84c-.1.81-.37,1.47-.78,1.9-.33.35-.73.54-1.16.54s-.85-.19-1.19-.55c-.43-.44-.72-1.1-.84-1.91l-.29-2c-.06-.39-.39-.68-.78-.68h-2.93c-.24,0-.47.11-.62.3l-3.34,4.18c-.79.98-1.92,1.5-3.28,1.5s-2.49-.52-3.28-1.5l-3.34-4.18c-.15-.19-.38-.3-.62-.3h-2.87c-.4,0-.73.3-.78.69l-.26,2c-.1.8-.39,1.46-.83,1.89-.36.36-.82.56-1.28.56s-.91-.2-1.26-.55c-.43-.43-.7-1.09-.78-1.88l-.21-2c-.04-.4-.38-.71-.79-.71h-14.08c-.26,0-.5.13-.65.34h0c-.68.97-1.62,1.78-2.73,2.35-1.15.59-2.47.9-3.8.9s-2.65-.31-3.8-.9c-1.11-.57-2.06-1.38-2.73-2.35h0c-.15-.21-.39-.34-.65-.34h-14.08c-.4,0-.74.31-.79.71l-.21,2c-.08.8-.36,1.45-.78,1.88-.35.35-.79.55-1.26.55-.47,0-.92-.2-1.28-.56-.44-.44-.73-1.09-.83-1.89l-.26-2c-.05-.39-.39-.69-.78-.69h-2.87c-.24,0-.47.11-.62.3l-3.34,4.18c-.79.98-1.92,1.5-3.28,1.5s-2.49-.52-3.28-1.5l-3.34-4.18c-.15-.19-.38-.3-.62-.3h-2.93c-.39,0-.73.29-.78.68l-.29,2c-.12.81-.41,1.47-.84,1.91-.34.35-.76.55-1.19.55s-.83-.19-1.16-.54c-.41-.44-.68-1.09-.78-1.9-.61-5.06-.61-6.97,0-12.03.1-.81.37-1.47.78-1.9.33-.35.73-.54,1.16-.54s.85.19,1.19.54c.43.44.72,1.1.84,1.92l.29,2c.06.39.39.68.78.68h2.93c.24,0,.47-.11.62-.3l3.34-4.18c.79-.98,1.92-1.5,3.28-1.5s2.49.52,3.28,1.5l3.34,4.18c.15.19.38.3.62.3h2.87c.4,0,.73-.3.78-.69l.26-2c.1-.8.39-1.46.83-1.89.36-.36.82-.56,1.28-.56s.91.19,1.26.55c.43.43.7,1.09.78,1.88l.21,2c.04.4.38.71.79.71h14.08c.26,0,.5-.13.65-.34h0c.68-.97,1.62-1.78,2.73-2.35,1.15-.59,2.47-.9,3.8-.9s2.65.31,3.8.9c1.11.57,2.06,1.38,2.73,2.35h0c.15.21.39.34.65.34h14.08c.4,0,.74-.31.79-.71l.21-2c.08-.8.36-1.45.78-1.88.35-.35.79-.55,1.26-.55s.92.2,1.28.56c.44.44.73,1.09.83,1.89l.26,2c.05.39.39.69.78.69h2.87c.24,0,.47-.11.62-.3l3.34-4.18c.79-.98,1.92-1.5,3.28-1.5s2.49.52,3.28,1.5l3.34,4.18c.15.19.38.3.62.3h2.93c.39,0,.73-.29.78-.68l.29-2c.12-.81.41-1.47.84-1.91.34-.35.76-.55,1.19-.55s.83.19,1.16.54c.41.44.68,1.09.78,1.9.61,5.06.61,6.97,0,12.03Z"/>
      <path class="cls-1" d="M117.97,23.72c-.51-4.19-4.92-4.18-5.54,0l-.29,2h-2.93l-3.34-4.18c-.93-1.17-2.31-1.8-3.9-1.8s-2.96.63-3.9,1.8l-3.34,4.18h-2.87l-.26-2c-.54-4.18-5.28-4.19-5.73,0l-.21,2h-14.07c-1.51-2.15-4.16-3.58-7.19-3.58s-5.68,1.43-7.19,3.58h-14.07l-.21-2c-.44-4.19-5.19-4.18-5.73,0l-.26,2h-2.87l-3.34-4.18c-.93-1.17-2.31-1.8-3.9-1.8s-2.96.63-3.9,1.8l-3.34,4.18h-2.93l-.29-2c-.62-4.18-5.03-4.19-5.54,0-.62,5.14-.62,7.08,0,12.22.51,4.19,4.92,4.18,5.54,0l.29-2h2.93l3.34,4.18c.93,1.17,2.31,1.8,3.9,1.8s2.96-.63,3.9-1.8l3.34-4.18h2.87l.26,2c.54,4.18,5.28,4.19,5.73,0l.21-2h14.07c1.51,2.15,4.16,3.58,7.19,3.58s5.68-1.43,7.19-3.58h14.07l.21,2c.44,4.19,5.19,4.18,5.73,0l.26-2h2.87l3.34,4.18c.93,1.17,2.31,1.8,3.9,1.8s2.96-.63,3.9-1.8l3.34-4.18h2.93l.29,2c.62,4.18,5.03,4.19,5.54,0,.62-5.14.62-7.08,0-12.22ZM117.19,35.84c-.1.81-.37,1.47-.78,1.9-.33.35-.73.54-1.16.54s-.85-.19-1.19-.55c-.43-.44-.72-1.1-.84-1.91l-.39-2.68h-4l-3.58,4.48c-.79.98-1.92,1.5-3.28,1.5s-2.49-.52-3.28-1.5l-3.58-4.48h-3.95l-.35,2.69c-.1.8-.39,1.46-.83,1.89-.36.36-.82.56-1.28.56s-.91-.2-1.26-.55c-.43-.43-.7-1.09-.78-1.88l-.29-2.71h-15.2l-.24.34c-.68.97-1.62,1.78-2.73,2.35-1.15.59-2.47.9-3.8.9s-2.65-.31-3.8-.9c-1.11-.57-2.06-1.38-2.73-2.35l-.24-.34h-15.2l-.29,2.71c-.08.8-.36,1.45-.78,1.88-.35.35-.79.55-1.26.55-.47,0-.92-.2-1.28-.56-.44-.44-.73-1.09-.83-1.89l-.35-2.69h-3.95l-3.58,4.48c-.79.98-1.92,1.5-3.28,1.5s-2.49-.52-3.28-1.5l-3.58-4.48h-4l-.39,2.68c-.12.81-.41,1.47-.84,1.91-.34.35-.76.55-1.19.55s-.83-.19-1.16-.54c-.41-.44-.68-1.09-.78-1.9-.61-5.06-.61-6.97,0-12.03.1-.81.37-1.47.78-1.9.33-.35.73-.54,1.16-.54s.85.19,1.19.54c.43.44.72,1.1.84,1.92l.39,2.68h4l3.58-4.48c.79-.98,1.92-1.5,3.28-1.5s2.49.52,3.28,1.5l3.58,4.48h3.95l.35-2.69c.1-.8.39-1.46.83-1.89.36-.36.82-.56,1.28-.56s.91.19,1.26.55c.43.43.7,1.09.78,1.88l.29,2.71h15.2l.24-.34c.68-.97,1.62-1.78,2.73-2.35,1.15-.59,2.47-.9,3.8-.9s2.65.31,3.8.9c1.11.57,2.06,1.38,2.73,2.35l.24.34h15.2l.29-2.71c.08-.8.36-1.45.78-1.88.35-.35.79-.55,1.26-.55s.92.2,1.28.56c.44.44.73,1.09.83,1.89l.35,2.69h3.95l3.58-4.48c.79-.98,1.92-1.5,3.28-1.5s2.49.52,3.28,1.5l3.58,4.48h4l.39-2.68c.12-.81.41-1.47.84-1.91.34-.35.76-.55,1.19-.55s.83.19,1.16.54c.41.44.68,1.09.78,1.9.61,5.06.61,6.97,0,12.03Z"/>
      <path class="cls-2" d="M125.88,14.68c-.51-.47-1.24-.73-1.98-.73h-6.08c-2.58,0-4.68-1.99-4.68-4.43,0-2.17,1.64-4.01,3.89-4.37l1.22-.2-.46-1.15c-.12-.3-.32-.57-.58-.82-.51-.47-1.24-.73-1.98-.73H13.55c-.75,0-1.47.27-1.98.73-.27.24-.46.51-.58.82l-.46,1.15,1.22.2c2.25.36,3.89,2.2,3.89,4.37,0,2.44-2.1,4.43-4.68,4.43h-6.08c-.75,0-1.47.27-1.98.73-.46.42-.72.96-.72,1.51v27.27c0,.56.25,1.09.72,1.51.51.47,1.24.73,1.98.73h6.08c2.58,0,4.68,1.99,4.68,4.43,0,2.17-1.64,4.01-3.89,4.37l-1.22.2.46,1.15c.12.3.32.58.58.82.51.47,1.24.73,1.98.73h101.67c.75,0,1.47-.27,1.98-.73.27-.24.46-.51.58-.82l.46-1.15-1.22-.2c-2.25-.36-3.89-2.2-3.89-4.37,0-2.44,2.1-4.43,4.68-4.43h6.08c.75,0,1.47-.27,1.98-.73.46-.42.72-.96.72-1.51v-27.27c0-.56-.25-1.09-.72-1.51ZM125.61,43.47c0,.35-.21.62-.39.78-.33.3-.82.48-1.32.48h-6.08c-3.13,0-5.67,2.43-5.67,5.42,0,2.68,2.05,4.92,4.72,5.35-.08.19-.21.34-.33.45-.33.3-.82.48-1.32.48H13.55c-.5,0-.99-.17-1.32-.48-.12-.11-.25-.26-.33-.45,2.68-.43,4.72-2.67,4.72-5.35,0-2.99-2.54-5.42-5.67-5.42h-6.08c-.5,0-.99-.17-1.32-.48-.18-.16-.39-.43-.39-.78v-27.27c0-.35.21-.62.39-.78.33-.3.82-.48,1.32-.48h6.08c3.13,0,5.67-2.43,5.67-5.42,0-2.68-2.05-4.92-4.72-5.35.08-.19.21-.34.33-.45.33-.3.82-.48,1.32-.48h101.67c.5,0,.99.17,1.32.48.12.11.25.26.33.45-2.68.43-4.72,2.67-4.72,5.35,0,2.99,2.54,5.42,5.67,5.42h6.08c.5,0,.99.17,1.32.48.18.16.39.43.39.78v27.27Z"/>
      <g>
        <path class="cls-4" d="M36,14.59c-.47,0-.9-.08-1.3-.23-.4-.15-.75-.37-1.04-.65-.29-.28-.52-.61-.69-.99s-.25-.8-.25-1.25.08-.87.25-1.25.39-.71.69-.99c.3-.28.64-.5,1.04-.65.4-.15.83-.23,1.3-.23.52,0,1,.09,1.42.27s.78.45,1.07.8l-.9.83c-.21-.24-.44-.41-.69-.53s-.53-.18-.83-.18c-.28,0-.54.05-.78.14-.24.09-.44.22-.61.4s-.31.38-.4.61c-.1.24-.14.5-.14.79s.05.55.14.79c.09.24.23.44.4.61.17.17.38.31.61.4.24.09.5.14.78.14.3,0,.58-.06.83-.18.25-.12.48-.3.69-.54l.9.83c-.29.35-.64.62-1.07.8-.42.18-.9.28-1.43.28Z"/>
        <path class="cls-4" d="M42.01,14.59c-.86,0-1.53-.24-2.01-.72s-.72-1.16-.72-2.05v-3.38h1.4v3.33c0,.58.12.99.35,1.24.24.25.57.38.99.38s.76-.13.99-.38c.24-.25.35-.67.35-1.24v-3.33h1.38v3.38c0,.89-.24,1.57-.72,2.05-.48.48-1.15.72-2.01.72Z"/>
        <path class="cls-4" d="M47.26,14.48v-4.9h-1.93v-1.14h5.27v1.14h-1.93v4.9h-1.4Z"/>
        <path class="cls-4" d="M52.68,14.48v-4.9h-1.93v-1.14h5.27v1.14h-1.93v4.9h-1.4Z"/>
        <path class="cls-4" d="M56.77,14.48v-6.04h1.4v6.04h-1.4Z"/>
        <path class="cls-4" d="M59.6,14.48v-6.04h1.16l3.57,4.35h-.56v-4.35h1.38v6.04h-1.15l-3.58-4.35h.56v4.35h-1.38Z"/>
        <path class="cls-4" d="M69.5,14.59c-.48,0-.92-.08-1.32-.23-.4-.15-.75-.37-1.04-.65-.3-.28-.53-.61-.69-.99s-.25-.8-.25-1.25.08-.87.25-1.25.4-.71.7-.99c.3-.28.65-.5,1.05-.65.4-.15.85-.23,1.33-.23.54,0,1.02.09,1.45.27.43.18.79.44,1.08.78l-.9.83c-.22-.23-.46-.4-.72-.51-.26-.11-.54-.17-.85-.17s-.56.05-.8.14c-.24.09-.45.22-.63.4-.18.17-.31.38-.41.61-.09.24-.14.5-.14.79s.05.54.14.78.23.44.41.62c.17.18.38.31.62.4.24.09.5.14.79.14s.55-.04.81-.13c.26-.09.52-.24.76-.45l.79,1.01c-.33.25-.71.44-1.14.57-.43.13-.87.2-1.3.2ZM71.94,13.82l-1.28-.18v-2.27h1.28v2.45Z"/>
        <path class="cls-4" d="M73.23,14.48v-6.04h4.57v1.12h-3.18v3.8h3.29v1.12h-4.68ZM74.52,11.96v-1.09h2.91v1.09h-2.91Z"/>
        <path class="cls-4" d="M79.03,14.48v-6.04h2.75c.66,0,1.23.13,1.74.38.5.25.89.6,1.17,1.05.28.45.42.98.42,1.6s-.14,1.14-.42,1.59c-.28.45-.67.8-1.17,1.05-.5.25-1.08.38-1.74.38h-2.75ZM80.43,13.34h1.28c.4,0,.75-.08,1.05-.23.3-.15.53-.37.69-.65s.25-.61.25-.99-.08-.72-.25-1-.39-.5-.69-.65c-.3-.15-.65-.23-1.05-.23h-1.28v3.75Z"/>
        <path class="cls-4" d="M89.08,14.59c-.48,0-.92-.08-1.32-.23-.4-.15-.75-.37-1.04-.65-.3-.28-.53-.61-.69-.99s-.25-.8-.25-1.25.08-.87.25-1.25.4-.71.7-.99c.3-.28.65-.5,1.05-.65.4-.15.85-.23,1.33-.23.54,0,1.02.09,1.45.27.43.18.79.44,1.08.78l-.9.83c-.22-.23-.46-.4-.72-.51-.26-.11-.54-.17-.85-.17s-.56.05-.8.14c-.24.09-.45.22-.63.4-.18.17-.31.38-.41.61-.09.24-.14.5-.14.79s.05.54.14.78.23.44.41.62c.17.18.38.31.62.4.24.09.5.14.79.14s.55-.04.81-.13c.26-.09.52-.24.76-.45l.79,1.01c-.33.25-.71.44-1.14.57-.43.13-.87.2-1.3.2ZM91.52,13.82l-1.28-.18v-2.27h1.28v2.45Z"/>
        <path class="cls-4" d="M92.82,14.48v-6.04h4.57v1.12h-3.18v3.8h3.29v1.12h-4.68ZM94.1,11.96v-1.09h2.91v1.09h-2.91Z"/>
      </g>
      <g>
        <path class="cls-4" d="M38.66,43.9h2.59s.07.01.1.04.04.06.04.1c0,.04-.01.08-.04.1-.03.02-.06.04-.1.04h-2.51l.07-.12v2.13l-.08-.1h2.21s.07.01.1.04.04.06.04.1c0,.04-.01.07-.04.1s-.06.04-.1.04h-2.2l.07-.08v2.18l-.03-.03h2.47s.07.01.1.04c.03.03.04.06.04.1,0,.04-.01.07-.04.1s-.06.04-.1.04h-2.59s-.07-.01-.1-.04c-.03-.03-.04-.06-.04-.1v-4.54s.01-.07.04-.1.06-.04.1-.04Z"/>
        <path class="cls-4" d="M45.06,48.78c-.36,0-.67-.05-.92-.18s-.5-.3-.74-.54c0,0-.02-.02-.03-.04,0-.02-.01-.04-.01-.07,0-.04.02-.07.05-.11.03-.03.07-.05.1-.05.04,0,.08.02.12.06.18.21.4.37.64.48.25.11.5.17.77.17.23,0,.44-.04.63-.11.18-.08.33-.18.43-.32.11-.14.16-.3.16-.49,0-.23-.07-.42-.19-.56-.12-.14-.28-.26-.48-.35-.19-.09-.4-.18-.62-.25-.17-.06-.34-.13-.5-.2-.17-.07-.31-.15-.45-.25s-.24-.22-.32-.37c-.08-.15-.12-.33-.12-.55s.06-.43.18-.61c.12-.18.3-.33.52-.43.23-.11.5-.16.81-.16.26,0,.52.05.76.14.25.09.44.23.58.42.05.06.07.11.07.14s-.02.06-.05.1c-.03.03-.07.05-.11.05-.04,0-.07-.01-.09-.04-.08-.11-.18-.21-.3-.29-.12-.08-.25-.14-.39-.19-.15-.04-.3-.07-.47-.07-.22,0-.43.04-.61.11s-.33.18-.44.31c-.11.13-.17.3-.17.5,0,.21.06.38.18.52.12.14.28.25.46.34.19.09.38.17.58.24.17.06.35.12.52.2s.33.16.47.26.25.24.33.4c.08.16.12.36.12.61,0,.21-.06.41-.18.58-.12.18-.29.32-.51.43-.22.11-.48.17-.79.17Z"/>
        <path class="cls-4" d="M48.65,44.16s-.07-.01-.1-.04c-.03-.03-.04-.06-.04-.09s.01-.07.04-.09c.03-.02.06-.04.1-.04h3.34s.07.01.1.04c.03.03.04.06.04.09,0,.04-.01.07-.04.1-.03.02-.06.03-.1.03h-3.34ZM50.32,48.71s-.07-.01-.1-.04c-.03-.03-.04-.06-.04-.1v-4.51h.28v4.51s-.01.07-.04.1c-.03.03-.06.04-.1.04Z"/>
        <path class="cls-4" d="M53.58,48.71c-.06,0-.11-.02-.14-.06-.03-.04-.05-.09-.05-.15v-.16c0-.06.02-.12.05-.16s.08-.06.14-.06h.03c.06,0,.11.02.14.06.03.04.04.09.04.16v.16c0,.06-.01.11-.04.15-.03.04-.08.06-.14.06h-.03Z"/>
        <path class="cls-4" d="M58.81,48.44s.07.01.1.04c.03.03.04.06.04.1,0,.04-.01.07-.04.1s-.06.04-.1.04h-2.65s-.08-.01-.12-.03c-.04-.02-.05-.06-.05-.11,0-.03.01-.06.03-.09l1.62-1.8c.28-.31.49-.58.63-.83.14-.25.2-.47.2-.66,0-.33-.1-.59-.3-.78-.2-.2-.47-.3-.81-.3-.16,0-.32.03-.47.1-.16.06-.29.15-.41.25-.12.11-.2.22-.26.35-.02.04-.04.07-.06.09-.02.02-.05.02-.09.02s-.07-.01-.1-.03-.04-.05-.04-.08c0-.02,0-.04,0-.05,0-.02.01-.04.03-.07.07-.15.18-.29.33-.42.15-.13.32-.23.51-.31.19-.08.38-.12.57-.12.28,0,.53.06.74.17.21.11.37.26.49.46.11.2.17.43.17.7,0,.23-.07.49-.22.76-.15.28-.38.58-.69.92l-1.48,1.68-.06-.08h2.49Z"/>
        <path class="cls-4" d="M61.66,48.72s-.06-.01-.1-.03c-.03-.02-.05-.05-.05-.09,0-.02,0-.04.01-.07l1.87-4.39.08.06h-2.44s-.07-.01-.1-.04-.04-.06-.04-.1.01-.08.04-.1c.03-.03.06-.04.1-.04h2.57c.05,0,.08.01.1.03.01.02.02.05.02.09,0,.03,0,.05-.01.07l-1.92,4.51s-.03.05-.05.07c-.03.02-.05.02-.09.02Z"/>
        <path class="cls-4" d="M65.43,48.71c-.06,0-.11-.02-.14-.06-.03-.04-.05-.09-.05-.15v-.16c0-.06.02-.12.05-.16s.08-.06.14-.06h.03c.06,0,.11.02.14.06.03.04.04.09.04.16v.16c0,.06-.01.11-.04.15-.03.04-.08.06-.14.06h-.03Z"/>
        <path class="cls-4" d="M69.39,48.78c-.36,0-.66-.11-.9-.33-.24-.22-.42-.52-.53-.9s-.18-.79-.18-1.25.06-.87.18-1.25c.12-.37.29-.67.53-.89.24-.22.54-.33.9-.33s.67.11.9.33.41.52.53.89c.12.37.18.79.18,1.25s-.06.87-.18,1.25-.29.67-.53.9c-.24.22-.54.33-.9.33ZM69.39,48.49c.29,0,.54-.09.73-.28.19-.19.34-.45.44-.78.1-.33.15-.71.15-1.13s-.05-.8-.15-1.13c-.1-.33-.25-.59-.44-.77-.2-.19-.44-.28-.73-.28s-.54.09-.73.28-.34.44-.44.77-.15.71-.15,1.13.05.8.15,1.13.25.59.44.78c.2.19.44.28.73.28Z"/>
        <path class="cls-4" d="M75.23,46.3l-.02-.03c.15.05.29.14.42.25.13.11.23.25.31.41s.12.34.12.54c0,.24-.06.46-.19.65s-.3.35-.52.47c-.22.12-.46.17-.73.17s-.51-.06-.73-.17c-.22-.12-.39-.27-.51-.47s-.19-.42-.19-.65c0-.2.04-.38.12-.54.08-.16.18-.29.31-.41.13-.11.27-.2.41-.26v.03c-.14-.06-.25-.14-.36-.25-.11-.11-.2-.24-.26-.39-.07-.15-.1-.31-.1-.49,0-.24.06-.46.18-.65.12-.19.28-.34.48-.46.2-.11.42-.17.67-.17s.46.06.66.17.36.26.47.46c.12.19.17.41.17.65,0,.17-.03.33-.1.48-.07.15-.15.28-.26.39-.11.11-.22.19-.35.25ZM74.63,48.51c.34,0,.62-.1.83-.29s.32-.44.32-.74c0-.2-.05-.38-.16-.54s-.25-.28-.42-.37c-.17-.09-.36-.13-.57-.13s-.39.04-.56.13c-.17.09-.31.21-.42.37s-.16.34-.16.54c0,.3.1.54.31.74.21.19.48.29.83.29ZM73.59,45.18c0,.2.05.38.14.53s.22.27.38.35.33.13.5.13.35-.04.5-.13c.16-.08.28-.2.38-.35.1-.15.14-.33.14-.53,0-.3-.1-.54-.29-.72-.19-.19-.44-.28-.74-.28s-.56.09-.75.28c-.19.19-.29.43-.29.72Z"/>
        <path class="cls-4" d="M78.38,48.71c-.06,0-.11-.02-.14-.06-.03-.04-.05-.09-.05-.15v-.16c0-.06.02-.12.05-.16.03-.04.08-.06.14-.06h.03c.06,0,.11.02.14.06.03.04.04.09.04.16v.16c0,.06-.02.11-.04.15-.03.04-.08.06-.14.06h-.03Z"/>
        <path class="cls-4" d="M83.61,48.44s.07.01.1.04c.03.03.04.06.04.1,0,.04-.01.07-.04.1s-.06.04-.1.04h-2.65s-.08-.01-.12-.03c-.04-.02-.05-.06-.05-.11,0-.03.01-.06.03-.09l1.62-1.8c.28-.31.49-.58.63-.83.13-.25.2-.47.2-.66,0-.33-.1-.59-.3-.78-.2-.2-.47-.3-.81-.3-.16,0-.32.03-.47.1-.16.06-.29.15-.41.25s-.2.22-.26.35c-.02.04-.04.07-.06.09-.02.02-.05.02-.09.02s-.07-.01-.1-.03c-.03-.02-.04-.05-.04-.08,0-.02,0-.04,0-.05,0-.02.01-.04.03-.07.07-.15.18-.29.33-.42.15-.13.32-.23.51-.31.19-.08.38-.12.57-.12.28,0,.53.06.74.17.21.11.37.26.48.46.12.2.17.43.17.7,0,.23-.07.49-.22.76s-.38.58-.69.92l-1.48,1.68-.06-.08h2.49Z"/>
        <path class="cls-4" d="M86.99,48.71s-.08-.01-.1-.04c-.03-.03-.04-.06-.04-.1v-4.36l.07.04-1.05.69s-.05.03-.08.03c-.04,0-.08-.02-.11-.05-.03-.03-.04-.07-.04-.1,0-.05.03-.09.08-.12l1.2-.79s.04-.02.06-.02c.02,0,.04,0,.05,0,.03,0,.06.02.08.04.02.03.03.06.03.09v4.54s-.01.07-.04.1c-.03.03-.06.04-.1.04Z"/>
      </g>
      <path class="cls-4" d="M99.46,9.63c-.98,0-1.77-.8-1.77-1.77s.79-1.77,1.77-1.77,1.77.8,1.77,1.77-.8,1.77-1.77,1.77ZM99.46,6.65c-.67,0-1.21.54-1.21,1.21s.54,1.21,1.21,1.21,1.21-.54,1.21-1.21-.54-1.21-1.21-1.21Z"/>
      <path class="cls-4" d="M98.95,8.47v-1.27h.54c.18,0,.31.04.41.12.1.08.15.19.15.34,0,.09-.02.18-.07.24-.04.07-.11.12-.19.16-.08.04-.18.05-.29.05h-.39l.13-.13v.48h-.29ZM99.24,8.02l-.13-.14h.37c.09,0,.16-.02.2-.06s.07-.09.07-.16-.02-.12-.07-.16c-.04-.04-.11-.06-.2-.06h-.37l.13-.14v.72ZM99.75,8.47l-.32-.46h.31l.32.46h-.32Z"/>
    </g>
  </g>
</svg>